solid OpenSCAD_Model
  facet normal 0 -1 0
    outer loop
      vertex 1.4 3.79054 10
      vertex 2.275 3.79054 1
      vertex 2.275 3.79054 10
    endloop
  endfacet
  facet normal 0 -1 0
    outer loop
      vertex 1.4 3.79054 0
      vertex 2.275 3.79054 1
      vertex 1.4 3.79054 10
    endloop
  endfacet
  facet normal 0 -1 0
    outer loop
      vertex 3.15 3.79054 0
      vertex 2.275 3.79054 1
      vertex 1.4 3.79054 0
    endloop
  endfacet
  facet normal 0 -1 0
    outer loop
      vertex 2.275 3.79054 1
      vertex 3.15 3.79054 0
      vertex 3.15 3.79054 1
    endloop
  endfacet
  facet normal -0.866025 -0.500001 2.77772e-17
    outer loop
      vertex 4.025 2.275 0
      vertex 3.15 3.79054 1
      vertex 3.15 3.79054 0
    endloop
  endfacet
  facet normal -0.866025 -0.500001 2.77772e-17
    outer loop
      vertex 3.15 3.79054 1
      vertex 4.025 2.275 0
      vertex 4.025 2.275 1
    endloop
  endfacet
  facet normal 0.866025 -0.500001 -9.8588e-20
    outer loop
      vertex 0.525 2.275 10
      vertex 1.4 3.79054 0
      vertex 1.4 3.79054 10
    endloop
  endfacet
  facet normal 0.866025 -0.500001 -9.8588e-20
    outer loop
      vertex 1.4 3.79054 0
      vertex 0.525 2.275 10
      vertex 0.525 2.275 0
    endloop
  endfacet
  facet normal 0.866025 0.5 9.86195e-20
    outer loop
      vertex 1.4 0.759455 10
      vertex 0.525 2.275 0
      vertex 0.525 2.275 10
    endloop
  endfacet
  facet normal 0.866025 0.5 9.86195e-20
    outer loop
      vertex 0.525 2.275 0
      vertex 1.4 0.759455 10
      vertex 1.4 0.759455 0
    endloop
  endfacet
  facet normal 0 0 -1
    outer loop
      vertex 3.15 41.8905 0
      vertex 4.025 78.475 0
      vertex 4.025 40.375 0
    endloop
  endfacet
  facet normal 0 0 -1
    outer loop
      vertex 3.15 41.8905 0
      vertex 3.15 76.9595 0
      vertex 4.025 78.475 0
    endloop
  endfacet
  facet normal 0 0 -1
    outer loop
      vertex 1.4 41.8905 0
      vertex 3.15 76.9595 0
      vertex 3.15 41.8905 0
    endloop
  endfacet
  facet normal 0 0 -1
    outer loop
      vertex 1.4 41.8905 0
      vertex 1.4 76.9595 0
      vertex 3.15 76.9595 0
    endloop
  endfacet
  facet normal 0 0 -1
    outer loop
      vertex 0.525 40.375 0
      vertex 1.4 76.9595 0
      vertex 1.4 41.8905 0
    endloop
  endfacet
  facet normal -0 0 -1
    outer loop
      vertex 1.4 76.9595 0
      vertex 0.525 40.375 0
      vertex 0.525 78.475 0
    endloop
  endfacet
  facet normal 0 0 -1
    outer loop
      vertex 3.15 3.79054 0
      vertex 4.025 40.375 0
      vertex 4.025 2.275 0
    endloop
  endfacet
  facet normal 0 0 -1
    outer loop
      vertex 3.15 3.79054 0
      vertex 3.15 38.8595 0
      vertex 4.025 40.375 0
    endloop
  endfacet
  facet normal 0 0 -1
    outer loop
      vertex 1.4 3.79054 0
      vertex 3.15 38.8595 0
      vertex 3.15 3.79054 0
    endloop
  endfacet
  facet normal 0 0 -1
    outer loop
      vertex 1.4 3.79054 0
      vertex 1.4 38.8595 0
      vertex 3.15 38.8595 0
    endloop
  endfacet
  facet normal 0 0 -1
    outer loop
      vertex 0.525 2.275 0
      vertex 1.4 38.8595 0
      vertex 1.4 3.79054 0
    endloop
  endfacet
  facet normal -0 0 -1
    outer loop
      vertex 1.4 38.8595 0
      vertex 0.525 2.275 0
      vertex 0.525 40.375 0
    endloop
  endfacet
  facet normal 0 0 -1
    outer loop
      vertex 98.4 41.8905 0
      vertex 99.275 78.475 0
      vertex 99.275 40.375 0
    endloop
  endfacet
  facet normal 0 0 -1
    outer loop
      vertex 98.4 41.8905 0
      vertex 98.4 76.9595 0
      vertex 99.275 78.475 0
    endloop
  endfacet
  facet normal 0 0 -1
    outer loop
      vertex 96.65 41.8905 0
      vertex 98.4 76.9595 0
      vertex 98.4 41.8905 0
    endloop
  endfacet
  facet normal 0 0 -1
    outer loop
      vertex 96.65 41.8905 0
      vertex 96.65 76.9595 0
      vertex 98.4 76.9595 0
    endloop
  endfacet
  facet normal 0 0 -1
    outer loop
      vertex 95.775 40.375 0
      vertex 96.65 76.9595 0
      vertex 96.65 41.8905 0
    endloop
  endfacet
  facet normal -0 0 -1
    outer loop
      vertex 96.65 76.9595 0
      vertex 95.775 40.375 0
      vertex 95.775 78.475 0
    endloop
  endfacet
  facet normal 0 0 -1
    outer loop
      vertex 99.275 2.275 0
      vertex 98.6688 39.325 0
      vertex 99.275 40.375 0
    endloop
  endfacet
  facet normal 0 0 -1
    outer loop
      vertex 98.4 3.79054 0
      vertex 98.6688 39.325 0
      vertex 99.275 2.275 0
    endloop
  endfacet
  facet normal 0 0 -1
    outer loop
      vertex 98.4 3.79054 0
      vertex 98.4 38.8595 0
      vertex 98.6688 39.325 0
    endloop
  endfacet
  facet normal 0 0 -1
    outer loop
      vertex 96.65 3.79054 0
      vertex 98.4 38.8595 0
      vertex 98.4 3.79054 0
    endloop
  endfacet
  facet normal 0 0 -1
    outer loop
      vertex 96.65 3.79054 0
      vertex 96.65 38.8595 0
      vertex 98.4 38.8595 0
    endloop
  endfacet
  facet normal 0 0 -1
    outer loop
      vertex 95.775 2.275 0
      vertex 96.65 38.8595 0
      vertex 96.65 3.79054 0
    endloop
  endfacet
  facet normal -0 0 -1
    outer loop
      vertex 96.65 38.8595 0
      vertex 95.775 2.275 0
      vertex 95.775 40.375 0
    endloop
  endfacet
  facet normal 0 0 -1
    outer loop
      vertex 193.65 41.8905 0
      vertex 194.525 78.475 0
      vertex 194.525 40.375 0
    endloop
  endfacet
  facet normal 0 0 -1
    outer loop
      vertex 193.65 41.8905 0
      vertex 193.65 76.9595 0
      vertex 194.525 78.475 0
    endloop
  endfacet
  facet normal 0 0 -1
    outer loop
      vertex 191.9 41.8905 0
      vertex 193.65 76.9595 0
      vertex 193.65 41.8905 0
    endloop
  endfacet
  facet normal 0 0 -1
    outer loop
      vertex 191.9 41.8905 0
      vertex 191.9 76.9595 0
      vertex 193.65 76.9595 0
    endloop
  endfacet
  facet normal 0 0 -1
    outer loop
      vertex 191.025 40.375 0
      vertex 191.9 76.9595 0
      vertex 191.9 41.8905 0
    endloop
  endfacet
  facet normal -0 0 -1
    outer loop
      vertex 191.9 76.9595 0
      vertex 191.025 40.375 0
      vertex 191.025 78.475 0
    endloop
  endfacet
  facet normal 0 0 -1
    outer loop
      vertex 193.65 3.79054 0
      vertex 194.525 40.375 0
      vertex 194.525 2.275 0
    endloop
  endfacet
  facet normal 0 0 -1
    outer loop
      vertex 193.65 3.79054 0
      vertex 193.65 38.8595 0
      vertex 194.525 40.375 0
    endloop
  endfacet
  facet normal 0 0 -1
    outer loop
      vertex 191.9 3.79054 0
      vertex 193.65 38.8595 0
      vertex 193.65 3.79054 0
    endloop
  endfacet
  facet normal 0 0 -1
    outer loop
      vertex 191.9 3.79054 0
      vertex 191.9 38.8595 0
      vertex 193.65 38.8595 0
    endloop
  endfacet
  facet normal 0 0 -1
    outer loop
      vertex 191.025 2.275 0
      vertex 191.9 38.8595 0
      vertex 191.9 3.79054 0
    endloop
  endfacet
  facet normal -0 0 -1
    outer loop
      vertex 191.9 38.8595 0
      vertex 191.025 2.275 0
      vertex 191.025 40.375 0
    endloop
  endfacet
  facet normal 0 0 -1
    outer loop
      vertex 194.525 40.375 0
      vertex 195.05 0 0
      vertex 194.525 2.275 0
    endloop
  endfacet
  facet normal 0 0 -1
    outer loop
      vertex 195.05 0 0
      vertex 193.65 0.759455 0
      vertex 194.525 2.275 0
    endloop
  endfacet
  facet normal 0 0 -1
    outer loop
      vertex 195.05 0 0
      vertex 191.9 0.759455 0
      vertex 193.65 0.759455 0
    endloop
  endfacet
  facet normal 0 0 -1
    outer loop
      vertex 99.275 40.375 0
      vertex 191.025 40.375 0
      vertex 191.025 2.275 0
    endloop
  endfacet
  facet normal 0 0 -1
    outer loop
      vertex 99.275 40.375 0
      vertex 191.025 2.275 0
      vertex 99.275 2.275 0
    endloop
  endfacet
  facet normal 0 0 -1
    outer loop
      vertex 191.9 0.759455 0
      vertex 99.275 2.275 0
      vertex 191.025 2.275 0
    endloop
  endfacet
  facet normal 0 0 -1
    outer loop
      vertex 98.4 0.759455 0
      vertex 191.9 0.759455 0
      vertex 195.05 0 0
    endloop
  endfacet
  facet normal 0 0 -1
    outer loop
      vertex 191.9 0.759455 0
      vertex 98.4 0.759455 0
      vertex 99.275 2.275 0
    endloop
  endfacet
  facet normal 0 0 -1
    outer loop
      vertex 195.05 0 0
      vertex 96.65 0.759455 0
      vertex 98.4 0.759455 0
    endloop
  endfacet
  facet normal 0 0 -1
    outer loop
      vertex 4.025 40.375 0
      vertex 95.775 40.375 0
      vertex 95.775 2.275 0
    endloop
  endfacet
  facet normal 0 0 -1
    outer loop
      vertex 4.025 40.375 0
      vertex 95.775 2.275 0
      vertex 4.025 2.275 0
    endloop
  endfacet
  facet normal 0 0 -1
    outer loop
      vertex 96.65 0.759455 0
      vertex 4.025 2.275 0
      vertex 95.775 2.275 0
    endloop
  endfacet
  facet normal 0 0 -1
    outer loop
      vertex 96.65 0.759455 0
      vertex 3.15 0.759455 0
      vertex 4.025 2.275 0
    endloop
  endfacet
  facet normal 0 0 -1
    outer loop
      vertex 0 0 0
      vertex 96.65 0.759455 0
      vertex 195.05 0 0
    endloop
  endfacet
  facet normal -0 0 -1
    outer loop
      vertex 96.65 0.759455 0
      vertex 0 0 0
      vertex 3.15 0.759455 0
    endloop
  endfacet
  facet normal 0 0 -1
    outer loop
      vertex 0 0 0
      vertex 0.525 40.375 0
      vertex 0.525 2.275 0
    endloop
  endfacet
  facet normal 0 0 -1
    outer loop
      vertex 0 80.75 0
      vertex 0.525 40.375 0
      vertex 0 0 0
    endloop
  endfacet
  facet normal -0 0 -1
    outer loop
      vertex 1.4 0.759455 0
      vertex 0 0 0
      vertex 0.525 2.275 0
    endloop
  endfacet
  facet normal -0 0 -1
    outer loop
      vertex 3.15 0.759455 0
      vertex 0 0 0
      vertex 1.4 0.759455 0
    endloop
  endfacet
  facet normal 0 0 -1
    outer loop
      vertex 195.05 0 0
      vertex 194.525 40.375 0
      vertex 195.05 80.75 0
    endloop
  endfacet
  facet normal 0 0 -1
    outer loop
      vertex 194.525 78.475 0
      vertex 195.05 80.75 0
      vertex 194.525 40.375 0
    endloop
  endfacet
  facet normal 0 0 -1
    outer loop
      vertex 193.65 79.9905 0
      vertex 195.05 80.75 0
      vertex 194.525 78.475 0
    endloop
  endfacet
  facet normal 0 0 -1
    outer loop
      vertex 191.9 79.9905 0
      vertex 195.05 80.75 0
      vertex 193.65 79.9905 0
    endloop
  endfacet
  facet normal 0 0 -1
    outer loop
      vertex 191.025 40.375 0
      vertex 99.275 40.375 0
      vertex 191.025 78.475 0
    endloop
  endfacet
  facet normal 0 0 -1
    outer loop
      vertex 99.275 78.475 0
      vertex 191.025 78.475 0
      vertex 99.275 40.375 0
    endloop
  endfacet
  facet normal 0 0 -1
    outer loop
      vertex 191.025 78.475 0
      vertex 99.275 78.475 0
      vertex 191.9 79.9905 0
    endloop
  endfacet
  facet normal 0 0 -1
    outer loop
      vertex 98.4 79.9905 0
      vertex 191.9 79.9905 0
      vertex 99.275 78.475 0
    endloop
  endfacet
  facet normal 0 0 -1
    outer loop
      vertex 191.9 79.9905 0
      vertex 98.4 79.9905 0
      vertex 195.05 80.75 0
    endloop
  endfacet
  facet normal 0 0 -1
    outer loop
      vertex 96.65 79.9905 0
      vertex 195.05 80.75 0
      vertex 98.4 79.9905 0
    endloop
  endfacet
  facet normal 0 0 -1
    outer loop
      vertex 95.775 40.375 0
      vertex 4.025 40.375 0
      vertex 95.775 78.475 0
    endloop
  endfacet
  facet normal 0 0 -1
    outer loop
      vertex 4.025 78.475 0
      vertex 95.775 78.475 0
      vertex 4.025 40.375 0
    endloop
  endfacet
  facet normal 0 0 -1
    outer loop
      vertex 95.775 78.475 0
      vertex 4.025 78.475 0
      vertex 96.65 79.9905 0
    endloop
  endfacet
  facet normal 0 0 -1
    outer loop
      vertex 3.15 79.9905 0
      vertex 96.65 79.9905 0
      vertex 4.025 78.475 0
    endloop
  endfacet
  facet normal 0 0 -1
    outer loop
      vertex 0 80.75 0
      vertex 96.65 79.9905 0
      vertex 3.15 79.9905 0
    endloop
  endfacet
  facet normal 0 0 -1
    outer loop
      vertex 0 80.75 0
      vertex 3.15 79.9905 0
      vertex 1.4 79.9905 0
    endloop
  endfacet
  facet normal 0 0 -1
    outer loop
      vertex 96.65 79.9905 0
      vertex 0 80.75 0
      vertex 195.05 80.75 0
    endloop
  endfacet
  facet normal 0 0 -1
    outer loop
      vertex 0.525 78.475 0
      vertex 0 80.75 0
      vertex 1.4 79.9905 0
    endloop
  endfacet
  facet normal 0 0 -1
    outer loop
      vertex 0.525 40.375 0
      vertex 0 80.75 0
      vertex 0.525 78.475 0
    endloop
  endfacet
  facet normal -0 0 1
    outer loop
      vertex 193.65 38.8595 10
      vertex 194.525 2.275 10
      vertex 194.525 40.375 10
    endloop
  endfacet
  facet normal 0 0 1
    outer loop
      vertex 193.65 38.8595 10
      vertex 193.65 3.79054 10
      vertex 194.525 2.275 10
    endloop
  endfacet
  facet normal -0 0 1
    outer loop
      vertex 192.775 38.8595 10
      vertex 193.65 3.79054 10
      vertex 193.65 38.8595 10
    endloop
  endfacet
  facet normal 0 0 1
    outer loop
      vertex 193.65 3.79054 10
      vertex 192.775 38.8595 10
      vertex 192.775 3.79054 10
    endloop
  endfacet
  facet normal -0 0 1
    outer loop
      vertex 193.65 76.9595 10
      vertex 194.525 40.375 10
      vertex 194.525 78.475 10
    endloop
  endfacet
  facet normal 0 0 1
    outer loop
      vertex 193.65 76.9595 10
      vertex 193.65 41.8905 10
      vertex 194.525 40.375 10
    endloop
  endfacet
  facet normal -0 0 1
    outer loop
      vertex 192.775 76.9595 10
      vertex 193.65 41.8905 10
      vertex 193.65 76.9595 10
    endloop
  endfacet
  facet normal 0 0 1
    outer loop
      vertex 193.65 41.8905 10
      vertex 192.775 76.9595 10
      vertex 192.775 41.8905 10
    endloop
  endfacet
  facet normal 0 0 1
    outer loop
      vertex 194.525 40.375 10
      vertex 195.05 80.75 10
      vertex 194.525 78.475 10
    endloop
  endfacet
  facet normal 0 0 1
    outer loop
      vertex 195.05 80.75 10
      vertex 193.65 79.9905 10
      vertex 194.525 78.475 10
    endloop
  endfacet
  facet normal 0 0 1
    outer loop
      vertex 195.05 80.75 10
      vertex 191.9 79.9905 10
      vertex 193.65 79.9905 10
    endloop
  endfacet
  facet normal 0 0 1
    outer loop
      vertex 191.9 79.9905 10
      vertex 99.275 78.475 10
      vertex 191.025 78.475 10
    endloop
  endfacet
  facet normal 0 0 1
    outer loop
      vertex 98.4 79.9905 10
      vertex 191.9 79.9905 10
      vertex 195.05 80.75 10
    endloop
  endfacet
  facet normal 0 0 1
    outer loop
      vertex 191.9 79.9905 10
      vertex 98.4 79.9905 10
      vertex 99.275 78.475 10
    endloop
  endfacet
  facet normal 0 0 1
    outer loop
      vertex 195.05 80.75 10
      vertex 96.65 79.9905 10
      vertex 98.4 79.9905 10
    endloop
  endfacet
  facet normal 0 0 1
    outer loop
      vertex 96.65 79.9905 10
      vertex 4.025 78.475 10
      vertex 95.775 78.475 10
    endloop
  endfacet
  facet normal 0 0 1
    outer loop
      vertex 96.65 79.9905 10
      vertex 3.15 79.9905 10
      vertex 4.025 78.475 10
    endloop
  endfacet
  facet normal -0 0 1
    outer loop
      vertex 0 80.75 10
      vertex 96.65 79.9905 10
      vertex 195.05 80.75 10
    endloop
  endfacet
  facet normal 0 0 1
    outer loop
      vertex 96.65 79.9905 10
      vertex 0 80.75 10
      vertex 3.15 79.9905 10
    endloop
  endfacet
  facet normal 0 0 1
    outer loop
      vertex 0 80.75 10
      vertex 0.525 40.375 10
      vertex 0.525 78.475 10
    endloop
  endfacet
  facet normal 0 0 1
    outer loop
      vertex 0 0 10
      vertex 0.525 40.375 10
      vertex 0 80.75 10
    endloop
  endfacet
  facet normal 0 0 1
    outer loop
      vertex 1.4 79.9905 10
      vertex 0 80.75 10
      vertex 0.525 78.475 10
    endloop
  endfacet
  facet normal 0 0 1
    outer loop
      vertex 3.15 79.9905 10
      vertex 0 80.75 10
      vertex 1.4 79.9905 10
    endloop
  endfacet
  facet normal 0 0 1
    outer loop
      vertex 195.05 80.75 10
      vertex 194.525 40.375 10
      vertex 195.05 0 10
    endloop
  endfacet
  facet normal -0 0 1
    outer loop
      vertex 194.525 2.275 10
      vertex 195.05 0 10
      vertex 194.525 40.375 10
    endloop
  endfacet
  facet normal -0 0 1
    outer loop
      vertex 193.65 0.759455 10
      vertex 195.05 0 10
      vertex 194.525 2.275 10
    endloop
  endfacet
  facet normal -0 0 1
    outer loop
      vertex 191.9 0.759455 10
      vertex 195.05 0 10
      vertex 193.65 0.759455 10
    endloop
  endfacet
  facet normal -0 0 1
    outer loop
      vertex 99.275 2.275 10
      vertex 191.9 0.759455 10
      vertex 191.025 2.275 10
    endloop
  endfacet
  facet normal 0 0 1
    outer loop
      vertex 98.4 0.759455 10
      vertex 191.9 0.759455 10
      vertex 99.275 2.275 10
    endloop
  endfacet
  facet normal 0 0 1
    outer loop
      vertex 191.9 0.759455 10
      vertex 98.4 0.759455 10
      vertex 195.05 0 10
    endloop
  endfacet
  facet normal -0 0 1
    outer loop
      vertex 96.65 0.759455 10
      vertex 195.05 0 10
      vertex 98.4 0.759455 10
    endloop
  endfacet
  facet normal -0 0 1
    outer loop
      vertex 4.025 2.275 10
      vertex 96.65 0.759455 10
      vertex 95.775 2.275 10
    endloop
  endfacet
  facet normal 0 0 1
    outer loop
      vertex 3.15 0.759455 10
      vertex 96.65 0.759455 10
      vertex 4.025 2.275 10
    endloop
  endfacet
  facet normal 0 0 1
    outer loop
      vertex 0 0 10
      vertex 96.65 0.759455 10
      vertex 3.15 0.759455 10
    endloop
  endfacet
  facet normal 0 0 1
    outer loop
      vertex 0 0 10
      vertex 3.15 0.759455 10
      vertex 1.4 0.759455 10
    endloop
  endfacet
  facet normal 0 0 1
    outer loop
      vertex 96.65 0.759455 10
      vertex 0 0 10
      vertex 195.05 0 10
    endloop
  endfacet
  facet normal 0 0 1
    outer loop
      vertex 0.525 2.275 10
      vertex 0 0 10
      vertex 1.4 0.759455 10
    endloop
  endfacet
  facet normal 0 0 1
    outer loop
      vertex 0.525 40.375 10
      vertex 0 0 10
      vertex 0.525 2.275 10
    endloop
  endfacet
  facet normal -0 0 1
    outer loop
      vertex 1.4 76.9595 10
      vertex 2.275 41.8905 10
      vertex 2.275 76.9595 10
    endloop
  endfacet
  facet normal 0 0 1
    outer loop
      vertex 1.4 76.9595 10
      vertex 1.4 41.8905 10
      vertex 2.275 41.8905 10
    endloop
  endfacet
  facet normal 0 0 1
    outer loop
      vertex 0.525 78.475 10
      vertex 1.4 41.8905 10
      vertex 1.4 76.9595 10
    endloop
  endfacet
  facet normal 0 0 1
    outer loop
      vertex 1.4 41.8905 10
      vertex 0.525 78.475 10
      vertex 0.525 40.375 10
    endloop
  endfacet
  facet normal -0 0 1
    outer loop
      vertex 1.4 38.8595 10
      vertex 2.275 3.79054 10
      vertex 2.275 38.8595 10
    endloop
  endfacet
  facet normal 0 0 1
    outer loop
      vertex 1.4 38.8595 10
      vertex 1.4 3.79054 10
      vertex 2.275 3.79054 10
    endloop
  endfacet
  facet normal 0 0 1
    outer loop
      vertex 0.525 40.375 10
      vertex 1.4 3.79054 10
      vertex 1.4 38.8595 10
    endloop
  endfacet
  facet normal 0 0 1
    outer loop
      vertex 1.4 3.79054 10
      vertex 0.525 40.375 10
      vertex 0.525 2.275 10
    endloop
  endfacet
  facet normal 0 1 -0
    outer loop
      vertex 3.15 0.759455 0
      vertex 1.4 0.759455 10
      vertex 3.15 0.759455 10
    endloop
  endfacet
  facet normal 0 1 0
    outer loop
      vertex 1.4 0.759455 10
      vertex 3.15 0.759455 0
      vertex 1.4 0.759455 0
    endloop
  endfacet
  facet normal -0.866025 0.5 -2.77759e-17
    outer loop
      vertex 3.15 0.759455 0
      vertex 4.025 2.275 1
      vertex 4.025 2.275 0
    endloop
  endfacet
  facet normal -0.866025 0.5 0
    outer loop
      vertex 3.15 0.759455 10
      vertex 4.025 2.275 1
      vertex 3.15 0.759455 0
    endloop
  endfacet
  facet normal -0.866025 0.5 0
    outer loop
      vertex 4.025 2.275 1
      vertex 3.15 0.759455 10
      vertex 4.025 2.275 10
    endloop
  endfacet
  facet normal 0 -1 0
    outer loop
      vertex 1.4 41.8905 10
      vertex 2.275 41.8905 1
      vertex 2.275 41.8905 10
    endloop
  endfacet
  facet normal 0 -1 0
    outer loop
      vertex 1.4 41.8905 0
      vertex 2.275 41.8905 1
      vertex 1.4 41.8905 10
    endloop
  endfacet
  facet normal 0 -1 0
    outer loop
      vertex 3.15 41.8905 0
      vertex 2.275 41.8905 1
      vertex 1.4 41.8905 0
    endloop
  endfacet
  facet normal 0 -1 0
    outer loop
      vertex 2.275 41.8905 1
      vertex 3.15 41.8905 0
      vertex 3.15 41.8905 1
    endloop
  endfacet
  facet normal -0.866019 -0.500011 -3.93345e-18
    outer loop
      vertex 4.025 40.375 0
      vertex 3.15 41.8905 1
      vertex 3.15 41.8905 0
    endloop
  endfacet
  facet normal -0.866019 -0.500011 -3.93345e-18
    outer loop
      vertex 3.15 41.8905 1
      vertex 4.025 40.375 0
      vertex 4.025 40.375 1
    endloop
  endfacet
  facet normal 0.866019 -0.500011 3.0738e-18
    outer loop
      vertex 0.525 40.375 10
      vertex 1.4 41.8905 0
      vertex 1.4 41.8905 10
    endloop
  endfacet
  facet normal 0.866019 -0.500011 3.0738e-18
    outer loop
      vertex 1.4 41.8905 0
      vertex 0.525 40.375 10
      vertex 0.525 40.375 0
    endloop
  endfacet
  facet normal 0.866019 0.500011 -3.0738e-18
    outer loop
      vertex 1.4 38.8595 10
      vertex 0.525 40.375 0
      vertex 0.525 40.375 10
    endloop
  endfacet
  facet normal 0.866019 0.500011 -3.0738e-18
    outer loop
      vertex 0.525 40.375 0
      vertex 1.4 38.8595 10
      vertex 1.4 38.8595 0
    endloop
  endfacet
  facet normal 0 1 0
    outer loop
      vertex 3.15 38.8595 1
      vertex 3.15 38.8595 0
      vertex 2.275 38.8595 1
    endloop
  endfacet
  facet normal 0 1 -0
    outer loop
      vertex 2.275 38.8595 1
      vertex 1.4 38.8595 10
      vertex 2.275 38.8595 10
    endloop
  endfacet
  facet normal 0 1 0
    outer loop
      vertex 2.275 38.8595 1
      vertex 1.4 38.8595 0
      vertex 1.4 38.8595 10
    endloop
  endfacet
  facet normal 0 1 0
    outer loop
      vertex 1.4 38.8595 0
      vertex 2.275 38.8595 1
      vertex 3.15 38.8595 0
    endloop
  endfacet
  facet normal -0.866019 0.500011 3.93345e-18
    outer loop
      vertex 3.15 38.8595 0
      vertex 4.025 40.375 1
      vertex 4.025 40.375 0
    endloop
  endfacet
  facet normal -0.866019 0.500011 3.93345e-18
    outer loop
      vertex 4.025 40.375 1
      vertex 3.15 38.8595 0
      vertex 3.15 38.8595 1
    endloop
  endfacet
  facet normal 0 1 0
    outer loop
      vertex 3.15 76.9595 1
      vertex 3.15 76.9595 0
      vertex 2.275 76.9595 1
    endloop
  endfacet
  facet normal 0 1 -0
    outer loop
      vertex 2.275 76.9595 1
      vertex 1.4 76.9595 10
      vertex 2.275 76.9595 10
    endloop
  endfacet
  facet normal 0 1 0
    outer loop
      vertex 2.275 76.9595 1
      vertex 1.4 76.9595 0
      vertex 1.4 76.9595 10
    endloop
  endfacet
  facet normal 0 1 0
    outer loop
      vertex 1.4 76.9595 0
      vertex 2.275 76.9595 1
      vertex 3.15 76.9595 0
    endloop
  endfacet
  facet normal -0.866019 0.500011 3.93345e-18
    outer loop
      vertex 3.15 76.9595 0
      vertex 4.025 78.475 1
      vertex 4.025 78.475 0
    endloop
  endfacet
  facet normal -0.866019 0.500011 3.93345e-18
    outer loop
      vertex 4.025 78.475 1
      vertex 3.15 76.9595 0
      vertex 3.15 76.9595 1
    endloop
  endfacet
  facet normal 0 -1 0
    outer loop
      vertex 1.4 79.9905 0
      vertex 3.15 79.9905 10
      vertex 1.4 79.9905 10
    endloop
  endfacet
  facet normal 0 -1 -0
    outer loop
      vertex 3.15 79.9905 10
      vertex 1.4 79.9905 0
      vertex 3.15 79.9905 0
    endloop
  endfacet
  facet normal -0.866019 -0.500011 -0
    outer loop
      vertex 4.025 78.475 1
      vertex 3.15 79.9905 0
      vertex 4.025 78.475 0
    endloop
  endfacet
  facet normal -0.866019 -0.500011 0
    outer loop
      vertex 3.15 79.9905 0
      vertex 4.025 78.475 1
      vertex 3.15 79.9905 10
    endloop
  endfacet
  facet normal -0.866019 -0.500011 -4.3705e-19
    outer loop
      vertex 3.15 79.9905 10
      vertex 4.025 78.475 1
      vertex 4.025 78.475 10
    endloop
  endfacet
  facet normal 0.866019 -0.500011 3.0738e-18
    outer loop
      vertex 0.525 78.475 10
      vertex 1.4 79.9905 0
      vertex 1.4 79.9905 10
    endloop
  endfacet
  facet normal 0.866019 -0.500011 3.0738e-18
    outer loop
      vertex 1.4 79.9905 0
      vertex 0.525 78.475 10
      vertex 0.525 78.475 0
    endloop
  endfacet
  facet normal 0.866019 0.500011 -3.0738e-18
    outer loop
      vertex 1.4 76.9595 10
      vertex 0.525 78.475 0
      vertex 0.525 78.475 10
    endloop
  endfacet
  facet normal 0.866019 0.500011 -3.0738e-18
    outer loop
      vertex 0.525 78.475 0
      vertex 1.4 76.9595 10
      vertex 1.4 76.9595 0
    endloop
  endfacet
  facet normal 0 1 -0
    outer loop
      vertex 98.4 0.759455 0
      vertex 96.65 0.759455 10
      vertex 98.4 0.759455 10
    endloop
  endfacet
  facet normal 0 1 0
    outer loop
      vertex 96.65 0.759455 10
      vertex 98.4 0.759455 0
      vertex 96.65 0.759455 0
    endloop
  endfacet
  facet normal 0 -1 0
    outer loop
      vertex 96.65 3.79054 0
      vertex 98.4 3.79054 1
      vertex 96.65 3.79054 1
    endloop
  endfacet
  facet normal 0 -1 -0
    outer loop
      vertex 98.4 3.79054 1
      vertex 96.65 3.79054 0
      vertex 98.4 3.79054 0
    endloop
  endfacet
  facet normal -0.866025 -0.500001 3.17207e-17
    outer loop
      vertex 99.275 2.275 0
      vertex 98.4 3.79054 1
      vertex 98.4 3.79054 0
    endloop
  endfacet
  facet normal -0.866025 -0.500001 3.17207e-17
    outer loop
      vertex 98.4 3.79054 1
      vertex 99.275 2.275 0
      vertex 99.275 2.275 1
    endloop
  endfacet
  facet normal 0.866025 -0.500001 -3.17207e-17
    outer loop
      vertex 95.775 2.275 1
      vertex 96.65 3.79054 0
      vertex 96.65 3.79054 1
    endloop
  endfacet
  facet normal 0.866025 -0.500001 -3.17207e-17
    outer loop
      vertex 96.65 3.79054 0
      vertex 95.775 2.275 1
      vertex 95.775 2.275 0
    endloop
  endfacet
  facet normal 0.866025 0.5 3.52452e-18
    outer loop
      vertex 96.65 0.759455 10
      vertex 95.775 2.275 1
      vertex 95.775 2.275 10
    endloop
  endfacet
  facet normal 0.866025 0.5 -0
    outer loop
      vertex 96.65 0.759455 0
      vertex 95.775 2.275 1
      vertex 96.65 0.759455 10
    endloop
  endfacet
  facet normal 0.866025 0.5 0
    outer loop
      vertex 95.775 2.275 1
      vertex 96.65 0.759455 0
      vertex 95.775 2.275 0
    endloop
  endfacet
  facet normal -0.866025 0.5 -3.17206e-17
    outer loop
      vertex 98.4 0.759455 0
      vertex 99.275 2.275 1
      vertex 99.275 2.275 0
    endloop
  endfacet
  facet normal -0.866025 0.5 0
    outer loop
      vertex 98.4 0.759455 10
      vertex 99.275 2.275 1
      vertex 98.4 0.759455 0
    endloop
  endfacet
  facet normal -0.866025 0.5 0
    outer loop
      vertex 99.275 2.275 1
      vertex 98.4 0.759455 10
      vertex 99.275 2.275 10
    endloop
  endfacet
  facet normal 0 -1 0
    outer loop
      vertex 96.65 41.8905 10
      vertex 98.4 41.8905 1
      vertex 98.4 41.8905 10
    endloop
  endfacet
  facet normal 0 -1 0
    outer loop
      vertex 96.65 41.8905 0
      vertex 98.4 41.8905 1
      vertex 96.65 41.8905 10
    endloop
  endfacet
  facet normal 0 -1 -0
    outer loop
      vertex 98.4 41.8905 1
      vertex 96.65 41.8905 0
      vertex 98.4 41.8905 0
    endloop
  endfacet
  facet normal -0.866019 -0.500011 0
    outer loop
      vertex 99.275 40.375 0
      vertex 98.4 41.8905 1
      vertex 98.4 41.8905 0
    endloop
  endfacet
  facet normal -0.866019 -0.500011 0
    outer loop
      vertex 98.4 41.8905 1
      vertex 99.275 40.375 0
      vertex 99.275 40.375 1
    endloop
  endfacet
  facet normal -0.866032 0.499989 4.4071e-17
    outer loop
      vertex 98.6688 39.325 0
      vertex 99.275 40.375 1
      vertex 99.275 40.375 0
    endloop
  endfacet
  facet normal -0.866032 0.499989 4.4071e-17
    outer loop
      vertex 99.275 40.375 1
      vertex 98.6688 39.325 0
      vertex 98.6688 39.325 1
    endloop
  endfacet
  facet normal 0 1 -0
    outer loop
      vertex 98.4 76.9595 0
      vertex 96.65 76.9595 1
      vertex 98.4 76.9595 1
    endloop
  endfacet
  facet normal 0 1 0
    outer loop
      vertex 96.65 76.9595 1
      vertex 98.4 76.9595 0
      vertex 96.65 76.9595 0
    endloop
  endfacet
  facet normal -0.866019 0.500011 0
    outer loop
      vertex 98.4 76.9595 0
      vertex 99.275 78.475 1
      vertex 99.275 78.475 0
    endloop
  endfacet
  facet normal -0.866019 0.500011 0
    outer loop
      vertex 99.275 78.475 1
      vertex 98.4 76.9595 0
      vertex 98.4 76.9595 1
    endloop
  endfacet
  facet normal 0 -1 0
    outer loop
      vertex 96.65 79.9905 0
      vertex 98.4 79.9905 10
      vertex 96.65 79.9905 10
    endloop
  endfacet
  facet normal 0 -1 -0
    outer loop
      vertex 98.4 79.9905 10
      vertex 96.65 79.9905 0
      vertex 98.4 79.9905 0
    endloop
  endfacet
  facet normal -0.866019 -0.500011 -0
    outer loop
      vertex 99.275 78.475 1
      vertex 98.4 79.9905 0
      vertex 99.275 78.475 0
    endloop
  endfacet
  facet normal -0.866019 -0.500011 0
    outer loop
      vertex 98.4 79.9905 0
      vertex 99.275 78.475 1
      vertex 98.4 79.9905 10
    endloop
  endfacet
  facet normal -0.866019 -0.500011 0
    outer loop
      vertex 98.4 79.9905 10
      vertex 99.275 78.475 1
      vertex 99.275 78.475 10
    endloop
  endfacet
  facet normal 0.866019 -0.500011 0
    outer loop
      vertex 95.775 78.475 1
      vertex 96.65 79.9905 10
      vertex 95.775 78.475 10
    endloop
  endfacet
  facet normal 0.866019 -0.500011 0
    outer loop
      vertex 96.65 79.9905 10
      vertex 95.775 78.475 1
      vertex 96.65 79.9905 0
    endloop
  endfacet
  facet normal 0.866019 -0.500011 0
    outer loop
      vertex 96.65 79.9905 0
      vertex 95.775 78.475 1
      vertex 95.775 78.475 0
    endloop
  endfacet
  facet normal 0.866019 0.500011 0
    outer loop
      vertex 96.65 76.9595 1
      vertex 95.775 78.475 0
      vertex 95.775 78.475 1
    endloop
  endfacet
  facet normal 0.866019 0.500011 0
    outer loop
      vertex 95.775 78.475 0
      vertex 96.65 76.9595 1
      vertex 96.65 76.9595 0
    endloop
  endfacet
  facet normal 0 1 -0
    outer loop
      vertex 193.65 0.759455 0
      vertex 191.9 0.759455 10
      vertex 193.65 0.759455 10
    endloop
  endfacet
  facet normal 0 1 0
    outer loop
      vertex 191.9 0.759455 10
      vertex 193.65 0.759455 0
      vertex 191.9 0.759455 0
    endloop
  endfacet
  facet normal 0 -1 0
    outer loop
      vertex 191.9 3.79054 1
      vertex 191.9 3.79054 0
      vertex 192.775 3.79054 1
    endloop
  endfacet
  facet normal 0 -1 0
    outer loop
      vertex 192.775 3.79054 1
      vertex 193.65 3.79054 10
      vertex 192.775 3.79054 10
    endloop
  endfacet
  facet normal 0 -1 0
    outer loop
      vertex 192.775 3.79054 1
      vertex 193.65 3.79054 0
      vertex 193.65 3.79054 10
    endloop
  endfacet
  facet normal 0 -1 0
    outer loop
      vertex 193.65 3.79054 0
      vertex 192.775 3.79054 1
      vertex 191.9 3.79054 0
    endloop
  endfacet
  facet normal -0.866025 -0.500001 3.17207e-18
    outer loop
      vertex 194.525 2.275 0
      vertex 193.65 3.79054 10
      vertex 193.65 3.79054 0
    endloop
  endfacet
  facet normal -0.866025 -0.500001 3.17207e-18
    outer loop
      vertex 193.65 3.79054 10
      vertex 194.525 2.275 0
      vertex 194.525 2.275 10
    endloop
  endfacet
  facet normal 0.866025 -0.500001 -3.17207e-17
    outer loop
      vertex 191.025 2.275 1
      vertex 191.9 3.79054 0
      vertex 191.9 3.79054 1
    endloop
  endfacet
  facet normal 0.866025 -0.500001 -3.17207e-17
    outer loop
      vertex 191.9 3.79054 0
      vertex 191.025 2.275 1
      vertex 191.025 2.275 0
    endloop
  endfacet
  facet normal 0.866025 0.5 3.52452e-18
    outer loop
      vertex 191.9 0.759455 10
      vertex 191.025 2.275 1
      vertex 191.025 2.275 10
    endloop
  endfacet
  facet normal 0.866025 0.5 -0
    outer loop
      vertex 191.9 0.759455 0
      vertex 191.025 2.275 1
      vertex 191.9 0.759455 10
    endloop
  endfacet
  facet normal 0.866025 0.5 0
    outer loop
      vertex 191.025 2.275 1
      vertex 191.9 0.759455 0
      vertex 191.025 2.275 0
    endloop
  endfacet
  facet normal -0.866025 0.5 -3.17206e-18
    outer loop
      vertex 193.65 0.759455 0
      vertex 194.525 2.275 10
      vertex 194.525 2.275 0
    endloop
  endfacet
  facet normal -0.866025 0.5 -3.17206e-18
    outer loop
      vertex 194.525 2.275 10
      vertex 193.65 0.759455 0
      vertex 193.65 0.759455 10
    endloop
  endfacet
  facet normal 0 -1 0
    outer loop
      vertex 191.9 41.8905 1
      vertex 191.9 41.8905 0
      vertex 192.775 41.8905 1
    endloop
  endfacet
  facet normal 0 -1 0
    outer loop
      vertex 192.775 41.8905 1
      vertex 193.65 41.8905 10
      vertex 192.775 41.8905 10
    endloop
  endfacet
  facet normal 0 -1 0
    outer loop
      vertex 192.775 41.8905 1
      vertex 193.65 41.8905 0
      vertex 193.65 41.8905 10
    endloop
  endfacet
  facet normal 0 -1 0
    outer loop
      vertex 193.65 41.8905 0
      vertex 192.775 41.8905 1
      vertex 191.9 41.8905 0
    endloop
  endfacet
  facet normal -0.866019 -0.500011 0
    outer loop
      vertex 194.525 40.375 0
      vertex 193.65 41.8905 10
      vertex 193.65 41.8905 0
    endloop
  endfacet
  facet normal -0.866019 -0.500011 0
    outer loop
      vertex 193.65 41.8905 10
      vertex 194.525 40.375 0
      vertex 194.525 40.375 10
    endloop
  endfacet
  facet normal 0.866019 -0.500011 0
    outer loop
      vertex 191.025 40.375 1
      vertex 191.9 41.8905 0
      vertex 191.9 41.8905 1
    endloop
  endfacet
  facet normal 0.866019 -0.500011 0
    outer loop
      vertex 191.9 41.8905 0
      vertex 191.025 40.375 1
      vertex 191.025 40.375 0
    endloop
  endfacet
  facet normal 0.866019 0.500011 0
    outer loop
      vertex 191.9 38.8595 1
      vertex 191.025 40.375 0
      vertex 191.025 40.375 1
    endloop
  endfacet
  facet normal 0.866019 0.500011 0
    outer loop
      vertex 191.025 40.375 0
      vertex 191.9 38.8595 1
      vertex 191.9 38.8595 0
    endloop
  endfacet
  facet normal 0 1 0
    outer loop
      vertex 193.65 38.8595 10
      vertex 192.775 38.8595 1
      vertex 192.775 38.8595 10
    endloop
  endfacet
  facet normal 0 1 -0
    outer loop
      vertex 193.65 38.8595 0
      vertex 192.775 38.8595 1
      vertex 193.65 38.8595 10
    endloop
  endfacet
  facet normal 0 1 0
    outer loop
      vertex 191.9 38.8595 0
      vertex 192.775 38.8595 1
      vertex 193.65 38.8595 0
    endloop
  endfacet
  facet normal 0 1 0
    outer loop
      vertex 192.775 38.8595 1
      vertex 191.9 38.8595 0
      vertex 191.9 38.8595 1
    endloop
  endfacet
  facet normal -0.866019 0.500011 0
    outer loop
      vertex 193.65 38.8595 0
      vertex 194.525 40.375 10
      vertex 194.525 40.375 0
    endloop
  endfacet
  facet normal -0.866019 0.500011 0
    outer loop
      vertex 194.525 40.375 10
      vertex 193.65 38.8595 0
      vertex 193.65 38.8595 10
    endloop
  endfacet
  facet normal 0 1 0
    outer loop
      vertex 193.65 76.9595 10
      vertex 192.775 76.9595 1
      vertex 192.775 76.9595 10
    endloop
  endfacet
  facet normal 0 1 -0
    outer loop
      vertex 193.65 76.9595 0
      vertex 192.775 76.9595 1
      vertex 193.65 76.9595 10
    endloop
  endfacet
  facet normal 0 1 0
    outer loop
      vertex 191.9 76.9595 0
      vertex 192.775 76.9595 1
      vertex 193.65 76.9595 0
    endloop
  endfacet
  facet normal 0 1 0
    outer loop
      vertex 192.775 76.9595 1
      vertex 191.9 76.9595 0
      vertex 191.9 76.9595 1
    endloop
  endfacet
  facet normal -0.866019 0.500011 0
    outer loop
      vertex 193.65 76.9595 0
      vertex 194.525 78.475 10
      vertex 194.525 78.475 0
    endloop
  endfacet
  facet normal -0.866019 0.500011 0
    outer loop
      vertex 194.525 78.475 10
      vertex 193.65 76.9595 0
      vertex 193.65 76.9595 10
    endloop
  endfacet
  facet normal 0 -1 0
    outer loop
      vertex 191.9 79.9905 0
      vertex 193.65 79.9905 10
      vertex 191.9 79.9905 10
    endloop
  endfacet
  facet normal 0 -1 -0
    outer loop
      vertex 193.65 79.9905 10
      vertex 191.9 79.9905 0
      vertex 193.65 79.9905 0
    endloop
  endfacet
  facet normal -0.866019 -0.500011 0
    outer loop
      vertex 194.525 78.475 0
      vertex 193.65 79.9905 10
      vertex 193.65 79.9905 0
    endloop
  endfacet
  facet normal -0.866019 -0.500011 0
    outer loop
      vertex 193.65 79.9905 10
      vertex 194.525 78.475 0
      vertex 194.525 78.475 10
    endloop
  endfacet
  facet normal 0.866019 -0.500011 0
    outer loop
      vertex 191.025 78.475 1
      vertex 191.9 79.9905 10
      vertex 191.025 78.475 10
    endloop
  endfacet
  facet normal 0.866019 -0.500011 0
    outer loop
      vertex 191.9 79.9905 10
      vertex 191.025 78.475 1
      vertex 191.9 79.9905 0
    endloop
  endfacet
  facet normal 0.866019 -0.500011 0
    outer loop
      vertex 191.9 79.9905 0
      vertex 191.025 78.475 1
      vertex 191.025 78.475 0
    endloop
  endfacet
  facet normal 0.866019 0.500011 0
    outer loop
      vertex 191.9 76.9595 1
      vertex 191.025 78.475 0
      vertex 191.025 78.475 1
    endloop
  endfacet
  facet normal 0.866019 0.500011 0
    outer loop
      vertex 191.025 78.475 0
      vertex 191.9 76.9595 1
      vertex 191.9 76.9595 0
    endloop
  endfacet
  facet normal 1 -0 0
    outer loop
      vertex 195.05 0 10
      vertex 195.05 80.75 0
      vertex 195.05 80.75 10
    endloop
  endfacet
  facet normal 1 0 0
    outer loop
      vertex 195.05 80.75 0
      vertex 195.05 0 10
      vertex 195.05 0 0
    endloop
  endfacet
  facet normal -1 0 0
    outer loop
      vertex 0 0 0
      vertex 0 80.75 10
      vertex 0 80.75 0
    endloop
  endfacet
  facet normal -1 -0 0
    outer loop
      vertex 0 80.75 10
      vertex 0 0 0
      vertex 0 0 10
    endloop
  endfacet
  facet normal 0 1 0
    outer loop
      vertex 195.05 80.75 10
      vertex 58.65 80.75 9.25
      vertex 0 80.75 10
    endloop
  endfacet
  facet normal 0 1 0
    outer loop
      vertex 195.05 80.75 10
      vertex 58.65 80.75 1.75
      vertex 58.65 80.75 9.25
    endloop
  endfacet
  facet normal 0 1 0
    outer loop
      vertex 0 80.75 0
      vertex 58.65 80.75 1.75
      vertex 195.05 80.75 0
    endloop
  endfacet
  facet normal 0 1 -0
    outer loop
      vertex 195.05 80.75 0
      vertex 58.65 80.75 1.75
      vertex 195.05 80.75 10
    endloop
  endfacet
  facet normal 0 1 -0
    outer loop
      vertex 41.15 80.75 9.25
      vertex 0 80.75 10
      vertex 58.65 80.75 9.25
    endloop
  endfacet
  facet normal 0 1 -0
    outer loop
      vertex 41.15 80.75 1.75
      vertex 0 80.75 10
      vertex 41.15 80.75 9.25
    endloop
  endfacet
  facet normal 0 1 0
    outer loop
      vertex 41.15 80.75 1.75
      vertex 0 80.75 0
      vertex 0 80.75 10
    endloop
  endfacet
  facet normal 0 1 0
    outer loop
      vertex 58.65 80.75 1.75
      vertex 0 80.75 0
      vertex 41.15 80.75 1.75
    endloop
  endfacet
  facet normal 0 -1 0
    outer loop
      vertex 0 0 0
      vertex 195.05 0 10
      vertex 0 0 10
    endloop
  endfacet
  facet normal 0 -1 -0
    outer loop
      vertex 195.05 0 10
      vertex 0 0 0
      vertex 195.05 0 0
    endloop
  endfacet
  facet normal -1 0 0
    outer loop
      vertex 192.775 41.8905 1
      vertex 192.775 76.9595 10
      vertex 192.775 76.9595 1
    endloop
  endfacet
  facet normal -1 -0 0
    outer loop
      vertex 192.775 76.9595 10
      vertex 192.775 41.8905 1
      vertex 192.775 41.8905 10
    endloop
  endfacet
  facet normal -1 0 0
    outer loop
      vertex 192.775 3.79054 1
      vertex 192.775 38.8595 10
      vertex 192.775 38.8595 1
    endloop
  endfacet
  facet normal -1 -0 0
    outer loop
      vertex 192.775 38.8595 10
      vertex 192.775 3.79054 1
      vertex 192.775 3.79054 10
    endloop
  endfacet
  facet normal -0 0 1
    outer loop
      vertex 3.15 76.9595 1
      vertex 4.025 40.375 1
      vertex 4.025 78.475 1
    endloop
  endfacet
  facet normal 0 0 1
    outer loop
      vertex 3.15 76.9595 1
      vertex 3.15 41.8905 1
      vertex 4.025 40.375 1
    endloop
  endfacet
  facet normal -0 0 1
    outer loop
      vertex 2.275 76.9595 1
      vertex 3.15 41.8905 1
      vertex 3.15 76.9595 1
    endloop
  endfacet
  facet normal 0 0 1
    outer loop
      vertex 3.15 41.8905 1
      vertex 2.275 76.9595 1
      vertex 2.275 41.8905 1
    endloop
  endfacet
  facet normal -0 0 1
    outer loop
      vertex 191.9 76.9595 1
      vertex 192.775 41.8905 1
      vertex 192.775 76.9595 1
    endloop
  endfacet
  facet normal 0 0 1
    outer loop
      vertex 191.9 76.9595 1
      vertex 191.9 41.8905 1
      vertex 192.775 41.8905 1
    endloop
  endfacet
  facet normal 0 0 1
    outer loop
      vertex 191.025 78.475 1
      vertex 191.9 41.8905 1
      vertex 191.9 76.9595 1
    endloop
  endfacet
  facet normal 0 0 1
    outer loop
      vertex 191.025 78.475 1
      vertex 191.025 40.375 1
      vertex 191.9 41.8905 1
    endloop
  endfacet
  facet normal 0 0 1
    outer loop
      vertex 99.775 40.375 1
      vertex 191.025 40.375 1
      vertex 191.025 78.475 1
    endloop
  endfacet
  facet normal 0 0 1
    outer loop
      vertex 191.025 40.375 1
      vertex 99.775 40.375 1
      vertex 191.025 2.275 1
    endloop
  endfacet
  facet normal -0 0 1
    outer loop
      vertex 99.275 78.475 1
      vertex 99.775 40.375 1
      vertex 191.025 78.475 1
    endloop
  endfacet
  facet normal 0 0 1
    outer loop
      vertex 99.275 78.475 1
      vertex 99.116 41.966 1
      vertex 99.775 40.375 1
    endloop
  endfacet
  facet normal -0 0 1
    outer loop
      vertex 98.4 76.9595 1
      vertex 99.116 41.966 1
      vertex 99.275 78.475 1
    endloop
  endfacet
  facet normal 0 0 1
    outer loop
      vertex 98.4 76.9595 1
      vertex 97.525 42.625 1
      vertex 99.116 41.966 1
    endloop
  endfacet
  facet normal -0 0 1
    outer loop
      vertex 96.65 76.9595 1
      vertex 97.525 42.625 1
      vertex 98.4 76.9595 1
    endloop
  endfacet
  facet normal 0 0 1
    outer loop
      vertex 96.65 76.9595 1
      vertex 95.934 41.966 1
      vertex 97.525 42.625 1
    endloop
  endfacet
  facet normal 0 0 1
    outer loop
      vertex 95.775 78.475 1
      vertex 95.934 41.966 1
      vertex 96.65 76.9595 1
    endloop
  endfacet
  facet normal 0 0 1
    outer loop
      vertex 95.775 78.475 1
      vertex 95.275 40.375 1
      vertex 95.934 41.966 1
    endloop
  endfacet
  facet normal 0 -0 1
    outer loop
      vertex 95.275 40.375 1
      vertex 95.775 78.475 1
      vertex 4.025 78.475 1
    endloop
  endfacet
  facet normal -0 0 1
    outer loop
      vertex 191.9 38.8595 1
      vertex 192.775 3.79054 1
      vertex 192.775 38.8595 1
    endloop
  endfacet
  facet normal 0 0 1
    outer loop
      vertex 191.9 38.8595 1
      vertex 191.9 3.79054 1
      vertex 192.775 3.79054 1
    endloop
  endfacet
  facet normal 0 0 1
    outer loop
      vertex 191.025 40.375 1
      vertex 191.9 3.79054 1
      vertex 191.9 38.8595 1
    endloop
  endfacet
  facet normal 0 0 1
    outer loop
      vertex 191.9 3.79054 1
      vertex 191.025 40.375 1
      vertex 191.025 2.275 1
    endloop
  endfacet
  facet normal 0 0 1
    outer loop
      vertex 99.775 40.375 1
      vertex 99.275 2.275 1
      vertex 191.025 2.275 1
    endloop
  endfacet
  facet normal -0 0 1
    outer loop
      vertex 99.116 38.784 1
      vertex 99.275 2.275 1
      vertex 99.775 40.375 1
    endloop
  endfacet
  facet normal 0 0 1
    outer loop
      vertex 99.116 38.784 1
      vertex 98.4 3.79054 1
      vertex 99.275 2.275 1
    endloop
  endfacet
  facet normal -0 0 1
    outer loop
      vertex 97.525 38.125 1
      vertex 98.4 3.79054 1
      vertex 99.116 38.784 1
    endloop
  endfacet
  facet normal 0 0 1
    outer loop
      vertex 97.525 38.125 1
      vertex 96.65 3.79054 1
      vertex 98.4 3.79054 1
    endloop
  endfacet
  facet normal 0 0 1
    outer loop
      vertex 95.934 38.784 1
      vertex 96.65 3.79054 1
      vertex 97.525 38.125 1
    endloop
  endfacet
  facet normal 0 0 1
    outer loop
      vertex 95.934 38.784 1
      vertex 95.775 2.275 1
      vertex 96.65 3.79054 1
    endloop
  endfacet
  facet normal 0 0 1
    outer loop
      vertex 95.275 40.375 1
      vertex 95.775 2.275 1
      vertex 95.934 38.784 1
    endloop
  endfacet
  facet normal 0 0 1
    outer loop
      vertex 4.025 40.375 1
      vertex 95.275 40.375 1
      vertex 4.025 78.475 1
    endloop
  endfacet
  facet normal 0 0 1
    outer loop
      vertex 4.025 2.275 1
      vertex 95.275 40.375 1
      vertex 4.025 40.375 1
    endloop
  endfacet
  facet normal 0 0 1
    outer loop
      vertex 95.275 40.375 1
      vertex 4.025 2.275 1
      vertex 95.775 2.275 1
    endloop
  endfacet
  facet normal -0 0 1
    outer loop
      vertex 3.15 38.8595 1
      vertex 4.025 2.275 1
      vertex 4.025 40.375 1
    endloop
  endfacet
  facet normal 0 0 1
    outer loop
      vertex 3.15 38.8595 1
      vertex 3.15 3.79054 1
      vertex 4.025 2.275 1
    endloop
  endfacet
  facet normal -0 0 1
    outer loop
      vertex 2.275 38.8595 1
      vertex 3.15 3.79054 1
      vertex 3.15 38.8595 1
    endloop
  endfacet
  facet normal 0 0 1
    outer loop
      vertex 3.15 3.79054 1
      vertex 2.275 38.8595 1
      vertex 2.275 3.79054 1
    endloop
  endfacet
  facet normal 1 -0 0
    outer loop
      vertex 2.275 41.8905 10
      vertex 2.275 76.9595 1
      vertex 2.275 76.9595 10
    endloop
  endfacet
  facet normal 1 0 0
    outer loop
      vertex 2.275 76.9595 1
      vertex 2.275 41.8905 10
      vertex 2.275 41.8905 1
    endloop
  endfacet
  facet normal 1 -0 0
    outer loop
      vertex 2.275 3.79054 10
      vertex 2.275 38.8595 1
      vertex 2.275 38.8595 10
    endloop
  endfacet
  facet normal 1 0 0
    outer loop
      vertex 2.275 38.8595 1
      vertex 2.275 3.79054 10
      vertex 2.275 3.79054 1
    endloop
  endfacet
  facet normal 0 -1 0
    outer loop
      vertex 99.275 78.475 1
      vertex 191.025 78.475 10
      vertex 99.275 78.475 10
    endloop
  endfacet
  facet normal 0 -1 -0
    outer loop
      vertex 191.025 78.475 10
      vertex 99.275 78.475 1
      vertex 191.025 78.475 1
    endloop
  endfacet
  facet normal 0 -1 0
    outer loop
      vertex 4.025 78.475 10
      vertex 41.15 78.475 9.25
      vertex 95.775 78.475 10
    endloop
  endfacet
  facet normal 0 -1 0
    outer loop
      vertex 4.025 78.475 10
      vertex 41.15 78.475 1.75
      vertex 41.15 78.475 9.25
    endloop
  endfacet
  facet normal 0 -1 -0
    outer loop
      vertex 41.15 78.475 1.75
      vertex 4.025 78.475 1
      vertex 58.65 78.475 1.75
    endloop
  endfacet
  facet normal 0 -1 0
    outer loop
      vertex 4.025 78.475 1
      vertex 41.15 78.475 1.75
      vertex 4.025 78.475 10
    endloop
  endfacet
  facet normal 0 -1 0
    outer loop
      vertex 58.65 78.475 9.25
      vertex 95.775 78.475 10
      vertex 41.15 78.475 9.25
    endloop
  endfacet
  facet normal 0 -1 0
    outer loop
      vertex 58.65 78.475 1.75
      vertex 95.775 78.475 10
      vertex 58.65 78.475 9.25
    endloop
  endfacet
  facet normal 0 -1 0
    outer loop
      vertex 58.65 78.475 1.75
      vertex 95.775 78.475 1
      vertex 95.775 78.475 10
    endloop
  endfacet
  facet normal 0 -1 0
    outer loop
      vertex 95.775 78.475 1
      vertex 58.65 78.475 1.75
      vertex 4.025 78.475 1
    endloop
  endfacet
  facet normal 0 1 -0
    outer loop
      vertex 191.025 2.275 1
      vertex 99.275 2.275 10
      vertex 191.025 2.275 10
    endloop
  endfacet
  facet normal 0 1 0
    outer loop
      vertex 99.275 2.275 10
      vertex 191.025 2.275 1
      vertex 99.275 2.275 1
    endloop
  endfacet
  facet normal 0 1 -0
    outer loop
      vertex 95.775 2.275 1
      vertex 4.025 2.275 10
      vertex 95.775 2.275 10
    endloop
  endfacet
  facet normal 0 1 0
    outer loop
      vertex 4.025 2.275 10
      vertex 95.775 2.275 1
      vertex 4.025 2.275 1
    endloop
  endfacet
  facet normal -1 0 0
    outer loop
      vertex 58.65 78.475 1.75
      vertex 58.65 80.75 9.25
      vertex 58.65 80.75 1.75
    endloop
  endfacet
  facet normal -1 -0 0
    outer loop
      vertex 58.65 80.75 9.25
      vertex 58.65 78.475 1.75
      vertex 58.65 78.475 9.25
    endloop
  endfacet
  facet normal 0 0 -1
    outer loop
      vertex 41.15 78.475 9.25
      vertex 58.65 80.75 9.25
      vertex 58.65 78.475 9.25
    endloop
  endfacet
  facet normal -0 0 -1
    outer loop
      vertex 58.65 80.75 9.25
      vertex 41.15 78.475 9.25
      vertex 41.15 80.75 9.25
    endloop
  endfacet
  facet normal -0 0 1
    outer loop
      vertex 41.15 80.75 1.75
      vertex 58.65 78.475 1.75
      vertex 58.65 80.75 1.75
    endloop
  endfacet
  facet normal 0 0 1
    outer loop
      vertex 58.65 78.475 1.75
      vertex 41.15 80.75 1.75
      vertex 41.15 78.475 1.75
    endloop
  endfacet
  facet normal 1 -0 0
    outer loop
      vertex 41.15 78.475 9.25
      vertex 41.15 80.75 1.75
      vertex 41.15 80.75 9.25
    endloop
  endfacet
  facet normal 1 0 0
    outer loop
      vertex 41.15 80.75 1.75
      vertex 41.15 78.475 9.25
      vertex 41.15 78.475 1.75
    endloop
  endfacet
  facet normal -0.923882 -0.382677 -1.79622e-18
    outer loop
      vertex 95.934 38.784 1
      vertex 95.275 40.375 10
      vertex 95.275 40.375 1
    endloop
  endfacet
  facet normal -0.923882 -0.382677 -1.79622e-18
    outer loop
      vertex 95.275 40.375 10
      vertex 95.934 38.784 1
      vertex 95.934 38.784 10
    endloop
  endfacet
  facet normal 0.382677 0.923882 -0
    outer loop
      vertex 99.116 41.966 1
      vertex 97.525 42.625 10
      vertex 99.116 41.966 10
    endloop
  endfacet
  facet normal 0.382677 0.923882 0
    outer loop
      vertex 97.525 42.625 10
      vertex 99.116 41.966 1
      vertex 97.525 42.625 1
    endloop
  endfacet
  facet normal 0.923882 0.382677 7.25272e-19
    outer loop
      vertex 99.775 40.375 10
      vertex 99.116 41.966 1
      vertex 99.116 41.966 10
    endloop
  endfacet
  facet normal 0.923882 0.382677 7.25272e-19
    outer loop
      vertex 99.116 41.966 1
      vertex 99.775 40.375 10
      vertex 99.775 40.375 1
    endloop
  endfacet
  facet normal 0.923882 -0.382677 -7.25272e-19
    outer loop
      vertex 99.116 38.784 10
      vertex 99.775 40.375 1
      vertex 99.775 40.375 10
    endloop
  endfacet
  facet normal 0.923882 -0.382677 -7.25272e-19
    outer loop
      vertex 99.775 40.375 1
      vertex 99.116 38.784 10
      vertex 99.116 38.784 1
    endloop
  endfacet
  facet normal -0.382677 -0.923882 0
    outer loop
      vertex 95.934 38.784 1
      vertex 97.525 38.125 10
      vertex 95.934 38.784 10
    endloop
  endfacet
  facet normal -0.382677 -0.923882 -0
    outer loop
      vertex 97.525 38.125 10
      vertex 95.934 38.784 1
      vertex 97.525 38.125 1
    endloop
  endfacet
  facet normal -0.382677 0.923882 0
    outer loop
      vertex 97.525 42.625 1
      vertex 95.934 41.966 10
      vertex 97.525 42.625 10
    endloop
  endfacet
  facet normal -0.382677 0.923882 0
    outer loop
      vertex 95.934 41.966 10
      vertex 97.525 42.625 1
      vertex 95.934 41.966 1
    endloop
  endfacet
  facet normal -0.923882 0.382677 1.79622e-18
    outer loop
      vertex 95.275 40.375 1
      vertex 95.934 41.966 10
      vertex 95.934 41.966 1
    endloop
  endfacet
  facet normal -0.923882 0.382677 1.79622e-18
    outer loop
      vertex 95.934 41.966 10
      vertex 95.275 40.375 1
      vertex 95.275 40.375 10
    endloop
  endfacet
  facet normal 0.382677 -0.923882 0
    outer loop
      vertex 97.525 38.125 1
      vertex 99.116 38.784 10
      vertex 97.525 38.125 10
    endloop
  endfacet
  facet normal 0.382677 -0.923882 0
    outer loop
      vertex 99.116 38.784 10
      vertex 97.525 38.125 1
      vertex 99.116 38.784 1
    endloop
  endfacet
  facet normal 0 0 1
    outer loop
      vertex 99.116 41.966 10
      vertex 99.275 40.375 10
      vertex 99.775 40.375 10
    endloop
  endfacet
  facet normal 0 0 1
    outer loop
      vertex 99.116 41.966 10
      vertex 98.4 41.8905 10
      vertex 99.275 40.375 10
    endloop
  endfacet
  facet normal 0 0 1
    outer loop
      vertex 97.525 42.625 10
      vertex 98.4 41.8905 10
      vertex 99.116 41.966 10
    endloop
  endfacet
  facet normal 0 0 1
    outer loop
      vertex 97.525 42.625 10
      vertex 96.65 41.8905 10
      vertex 98.4 41.8905 10
    endloop
  endfacet
  facet normal -0 0 1
    outer loop
      vertex 95.934 41.966 10
      vertex 96.65 41.8905 10
      vertex 97.525 42.625 10
    endloop
  endfacet
  facet normal 0 0 1
    outer loop
      vertex 95.934 41.966 10
      vertex 95.775 40.375 10
      vertex 96.65 41.8905 10
    endloop
  endfacet
  facet normal 0 -0 1
    outer loop
      vertex 95.775 40.375 10
      vertex 95.934 41.966 10
      vertex 95.275 40.375 10
    endloop
  endfacet
  facet normal -0 0 1
    outer loop
      vertex 99.275 40.375 10
      vertex 99.116 38.784 10
      vertex 99.775 40.375 10
    endloop
  endfacet
  facet normal -0 0 1
    outer loop
      vertex 98.4 38.8595 10
      vertex 99.116 38.784 10
      vertex 99.275 40.375 10
    endloop
  endfacet
  facet normal 0 0 1
    outer loop
      vertex 98.4 38.8595 10
      vertex 97.525 38.125 10
      vertex 99.116 38.784 10
    endloop
  endfacet
  facet normal -0 0 1
    outer loop
      vertex 96.65 38.8595 10
      vertex 97.525 38.125 10
      vertex 98.4 38.8595 10
    endloop
  endfacet
  facet normal 0 0 1
    outer loop
      vertex 96.65 38.8595 10
      vertex 95.934 38.784 10
      vertex 97.525 38.125 10
    endloop
  endfacet
  facet normal 0 0 1
    outer loop
      vertex 95.775 40.375 10
      vertex 95.934 38.784 10
      vertex 96.65 38.8595 10
    endloop
  endfacet
  facet normal 0 0 1
    outer loop
      vertex 95.934 38.784 10
      vertex 95.775 40.375 10
      vertex 95.275 40.375 10
    endloop
  endfacet
  facet normal 0 1 -0
    outer loop
      vertex 98.4 38.8595 0
      vertex 96.65 38.8595 10
      vertex 98.4 38.8595 10
    endloop
  endfacet
  facet normal 0 1 0
    outer loop
      vertex 96.65 38.8595 10
      vertex 98.4 38.8595 0
      vertex 96.65 38.8595 0
    endloop
  endfacet
  facet normal -0.86599 0.500061 0
    outer loop
      vertex 98.6688 39.325 0
      vertex 98.4 38.8595 0
      vertex 98.6688 39.325 1
    endloop
  endfacet
  facet normal -0.866032 0.499989 4.89677e-18
    outer loop
      vertex 98.6688 39.325 1
      vertex 99.275 40.375 10
      vertex 99.275 40.375 1
    endloop
  endfacet
  facet normal -0.86599 0.500061 0
    outer loop
      vertex 98.4 38.8595 10
      vertex 98.6688 39.325 1
      vertex 98.4 38.8595 0
    endloop
  endfacet
  facet normal -0.866019 0.500011 -3.4223e-06
    outer loop
      vertex 98.6688 39.325 1
      vertex 98.4 38.8595 10
      vertex 99.275 40.375 10
    endloop
  endfacet
  facet normal -0.866019 -0.500011 0
    outer loop
      vertex 99.275 40.375 1
      vertex 98.4 41.8905 10
      vertex 98.4 41.8905 1
    endloop
  endfacet
  facet normal -0.866019 -0.500011 0
    outer loop
      vertex 98.4 41.8905 10
      vertex 99.275 40.375 1
      vertex 99.275 40.375 10
    endloop
  endfacet
  facet normal 0.866019 -0.500011 0
    outer loop
      vertex 95.775 40.375 10
      vertex 96.65 41.8905 0
      vertex 96.65 41.8905 10
    endloop
  endfacet
  facet normal 0.866019 -0.500011 0
    outer loop
      vertex 96.65 41.8905 0
      vertex 95.775 40.375 10
      vertex 95.775 40.375 0
    endloop
  endfacet
  facet normal 0.866019 0.500011 0
    outer loop
      vertex 96.65 38.8595 10
      vertex 95.775 40.375 0
      vertex 95.775 40.375 10
    endloop
  endfacet
  facet normal 0.866019 0.500011 0
    outer loop
      vertex 95.775 40.375 0
      vertex 96.65 38.8595 10
      vertex 96.65 38.8595 0
    endloop
  endfacet
endsolid OpenSCAD_Model
