solid OpenSCAD_Model
  facet normal 0 -1 0
    outer loop
      vertex 1.4 3.79054 0
      vertex 3.15 3.79054 1.5
      vertex 1.4 3.79054 1.5
    endloop
  endfacet
  facet normal 0 -1 -0
    outer loop
      vertex 3.15 3.79054 1.5
      vertex 1.4 3.79054 0
      vertex 3.15 3.79054 0
    endloop
  endfacet
  facet normal -0.866025 -0.500001 1.85181e-17
    outer loop
      vertex 4.025 2.275 0
      vertex 3.15 3.79054 1.5
      vertex 3.15 3.79054 0
    endloop
  endfacet
  facet normal -0.866025 -0.500001 1.85181e-17
    outer loop
      vertex 3.15 3.79054 1.5
      vertex 4.025 2.275 0
      vertex 4.025 2.275 1.5
    endloop
  endfacet
  facet normal 0.866025 -0.500001 -6.57253e-19
    outer loop
      vertex 0.525 2.275 1.5
      vertex 1.4 3.79054 0
      vertex 1.4 3.79054 1.5
    endloop
  endfacet
  facet normal 0.866025 -0.500001 -6.57253e-19
    outer loop
      vertex 1.4 3.79054 0
      vertex 0.525 2.275 1.5
      vertex 0.525 2.275 0
    endloop
  endfacet
  facet normal 0.866025 0.5 6.57463e-19
    outer loop
      vertex 1.4 0.759455 1.5
      vertex 0.525 2.275 0
      vertex 0.525 2.275 1.5
    endloop
  endfacet
  facet normal 0.866025 0.5 6.57463e-19
    outer loop
      vertex 0.525 2.275 0
      vertex 1.4 0.759455 1.5
      vertex 1.4 0.759455 0
    endloop
  endfacet
  facet normal 0 0 -1
    outer loop
      vertex 3.15 41.8905 0
      vertex 4.025 78.475 0
      vertex 4.025 40.375 0
    endloop
  endfacet
  facet normal 0 0 -1
    outer loop
      vertex 3.15 41.8905 0
      vertex 3.15 76.9595 0
      vertex 4.025 78.475 0
    endloop
  endfacet
  facet normal 0 0 -1
    outer loop
      vertex 1.4 41.8905 0
      vertex 3.15 76.9595 0
      vertex 3.15 41.8905 0
    endloop
  endfacet
  facet normal 0 0 -1
    outer loop
      vertex 1.4 41.8905 0
      vertex 1.4 76.9595 0
      vertex 3.15 76.9595 0
    endloop
  endfacet
  facet normal 0 0 -1
    outer loop
      vertex 0.525 40.375 0
      vertex 1.4 76.9595 0
      vertex 1.4 41.8905 0
    endloop
  endfacet
  facet normal -0 0 -1
    outer loop
      vertex 1.4 76.9595 0
      vertex 0.525 40.375 0
      vertex 0.525 78.475 0
    endloop
  endfacet
  facet normal 0 0 -1
    outer loop
      vertex 3.15 3.79054 0
      vertex 4.025 40.375 0
      vertex 4.025 2.275 0
    endloop
  endfacet
  facet normal 0 0 -1
    outer loop
      vertex 3.15 3.79054 0
      vertex 3.15 38.8595 0
      vertex 4.025 40.375 0
    endloop
  endfacet
  facet normal 0 0 -1
    outer loop
      vertex 1.4 3.79054 0
      vertex 3.15 38.8595 0
      vertex 3.15 3.79054 0
    endloop
  endfacet
  facet normal 0 0 -1
    outer loop
      vertex 1.4 3.79054 0
      vertex 1.4 38.8595 0
      vertex 3.15 38.8595 0
    endloop
  endfacet
  facet normal 0 0 -1
    outer loop
      vertex 0.525 2.275 0
      vertex 1.4 38.8595 0
      vertex 1.4 3.79054 0
    endloop
  endfacet
  facet normal -0 0 -1
    outer loop
      vertex 1.4 38.8595 0
      vertex 0.525 2.275 0
      vertex 0.525 40.375 0
    endloop
  endfacet
  facet normal 0 0 -1
    outer loop
      vertex 98.4 41.8905 0
      vertex 99.275 78.475 0
      vertex 99.275 40.375 0
    endloop
  endfacet
  facet normal 0 0 -1
    outer loop
      vertex 98.4 41.8905 0
      vertex 98.4 76.9595 0
      vertex 99.275 78.475 0
    endloop
  endfacet
  facet normal 0 0 -1
    outer loop
      vertex 96.65 41.8905 0
      vertex 98.4 76.9595 0
      vertex 98.4 41.8905 0
    endloop
  endfacet
  facet normal 0 0 -1
    outer loop
      vertex 96.65 41.8905 0
      vertex 96.65 76.9595 0
      vertex 98.4 76.9595 0
    endloop
  endfacet
  facet normal 0 0 -1
    outer loop
      vertex 95.775 40.375 0
      vertex 96.65 76.9595 0
      vertex 96.65 41.8905 0
    endloop
  endfacet
  facet normal -0 0 -1
    outer loop
      vertex 96.65 76.9595 0
      vertex 95.775 40.375 0
      vertex 95.775 78.475 0
    endloop
  endfacet
  facet normal 0 0 -1
    outer loop
      vertex 98.4 3.79054 0
      vertex 99.275 40.375 0
      vertex 99.275 2.275 0
    endloop
  endfacet
  facet normal 0 0 -1
    outer loop
      vertex 98.4 3.79054 0
      vertex 98.4 38.8595 0
      vertex 99.275 40.375 0
    endloop
  endfacet
  facet normal 0 0 -1
    outer loop
      vertex 96.65 3.79054 0
      vertex 98.4 38.8595 0
      vertex 98.4 3.79054 0
    endloop
  endfacet
  facet normal 0 0 -1
    outer loop
      vertex 96.65 3.79054 0
      vertex 96.65 38.8595 0
      vertex 98.4 38.8595 0
    endloop
  endfacet
  facet normal 0 0 -1
    outer loop
      vertex 95.775 2.275 0
      vertex 96.65 38.8595 0
      vertex 96.65 3.79054 0
    endloop
  endfacet
  facet normal -0 0 -1
    outer loop
      vertex 96.65 38.8595 0
      vertex 95.775 2.275 0
      vertex 95.775 40.375 0
    endloop
  endfacet
  facet normal 0 0 -1
    outer loop
      vertex 193.65 41.8905 0
      vertex 194.525 78.475 0
      vertex 194.525 40.375 0
    endloop
  endfacet
  facet normal 0 0 -1
    outer loop
      vertex 193.65 41.8905 0
      vertex 193.65 76.9595 0
      vertex 194.525 78.475 0
    endloop
  endfacet
  facet normal 0 0 -1
    outer loop
      vertex 191.9 41.8905 0
      vertex 193.65 76.9595 0
      vertex 193.65 41.8905 0
    endloop
  endfacet
  facet normal 0 0 -1
    outer loop
      vertex 191.9 41.8905 0
      vertex 191.9 76.9595 0
      vertex 193.65 76.9595 0
    endloop
  endfacet
  facet normal 0 0 -1
    outer loop
      vertex 191.025 40.375 0
      vertex 191.9 76.9595 0
      vertex 191.9 41.8905 0
    endloop
  endfacet
  facet normal -0 0 -1
    outer loop
      vertex 191.9 76.9595 0
      vertex 191.025 40.375 0
      vertex 191.025 78.475 0
    endloop
  endfacet
  facet normal 0 0 -1
    outer loop
      vertex 193.65 3.79054 0
      vertex 194.525 40.375 0
      vertex 194.525 2.275 0
    endloop
  endfacet
  facet normal 0 0 -1
    outer loop
      vertex 193.65 3.79054 0
      vertex 193.65 38.8595 0
      vertex 194.525 40.375 0
    endloop
  endfacet
  facet normal 0 0 -1
    outer loop
      vertex 191.9 3.79054 0
      vertex 193.65 38.8595 0
      vertex 193.65 3.79054 0
    endloop
  endfacet
  facet normal 0 0 -1
    outer loop
      vertex 191.9 3.79054 0
      vertex 191.9 38.8595 0
      vertex 193.65 38.8595 0
    endloop
  endfacet
  facet normal 0 0 -1
    outer loop
      vertex 191.025 2.275 0
      vertex 191.9 38.8595 0
      vertex 191.9 3.79054 0
    endloop
  endfacet
  facet normal -0 0 -1
    outer loop
      vertex 191.9 38.8595 0
      vertex 191.025 2.275 0
      vertex 191.025 40.375 0
    endloop
  endfacet
  facet normal 0 0 -1
    outer loop
      vertex 194.525 40.375 0
      vertex 195.05 0 0
      vertex 194.525 2.275 0
    endloop
  endfacet
  facet normal 0 0 -1
    outer loop
      vertex 195.05 0 0
      vertex 193.65 0.759455 0
      vertex 194.525 2.275 0
    endloop
  endfacet
  facet normal 0 0 -1
    outer loop
      vertex 195.05 0 0
      vertex 191.9 0.759455 0
      vertex 193.65 0.759455 0
    endloop
  endfacet
  facet normal 0 0 -1
    outer loop
      vertex 99.275 40.375 0
      vertex 191.025 40.375 0
      vertex 191.025 2.275 0
    endloop
  endfacet
  facet normal 0 0 -1
    outer loop
      vertex 99.275 40.375 0
      vertex 191.025 2.275 0
      vertex 99.275 2.275 0
    endloop
  endfacet
  facet normal 0 0 -1
    outer loop
      vertex 191.9 0.759455 0
      vertex 99.275 2.275 0
      vertex 191.025 2.275 0
    endloop
  endfacet
  facet normal 0 0 -1
    outer loop
      vertex 98.4 0.759455 0
      vertex 191.9 0.759455 0
      vertex 195.05 0 0
    endloop
  endfacet
  facet normal 0 0 -1
    outer loop
      vertex 191.9 0.759455 0
      vertex 98.4 0.759455 0
      vertex 99.275 2.275 0
    endloop
  endfacet
  facet normal 0 0 -1
    outer loop
      vertex 195.05 0 0
      vertex 96.65 0.759455 0
      vertex 98.4 0.759455 0
    endloop
  endfacet
  facet normal 0 0 -1
    outer loop
      vertex 4.025 40.375 0
      vertex 95.775 40.375 0
      vertex 95.775 2.275 0
    endloop
  endfacet
  facet normal 0 0 -1
    outer loop
      vertex 4.025 40.375 0
      vertex 95.775 2.275 0
      vertex 4.025 2.275 0
    endloop
  endfacet
  facet normal 0 0 -1
    outer loop
      vertex 96.65 0.759455 0
      vertex 4.025 2.275 0
      vertex 95.775 2.275 0
    endloop
  endfacet
  facet normal 0 0 -1
    outer loop
      vertex 96.65 0.759455 0
      vertex 3.15 0.759455 0
      vertex 4.025 2.275 0
    endloop
  endfacet
  facet normal 0 0 -1
    outer loop
      vertex 0 0 0
      vertex 96.65 0.759455 0
      vertex 195.05 0 0
    endloop
  endfacet
  facet normal -0 0 -1
    outer loop
      vertex 96.65 0.759455 0
      vertex 0 0 0
      vertex 3.15 0.759455 0
    endloop
  endfacet
  facet normal 0 0 -1
    outer loop
      vertex 0 0 0
      vertex 0.525 40.375 0
      vertex 0.525 2.275 0
    endloop
  endfacet
  facet normal 0 0 -1
    outer loop
      vertex 0 80.75 0
      vertex 0.525 40.375 0
      vertex 0 0 0
    endloop
  endfacet
  facet normal -0 0 -1
    outer loop
      vertex 1.4 0.759455 0
      vertex 0 0 0
      vertex 0.525 2.275 0
    endloop
  endfacet
  facet normal -0 0 -1
    outer loop
      vertex 3.15 0.759455 0
      vertex 0 0 0
      vertex 1.4 0.759455 0
    endloop
  endfacet
  facet normal 0 0 -1
    outer loop
      vertex 195.05 0 0
      vertex 194.525 40.375 0
      vertex 195.05 80.75 0
    endloop
  endfacet
  facet normal 0 0 -1
    outer loop
      vertex 194.525 78.475 0
      vertex 195.05 80.75 0
      vertex 194.525 40.375 0
    endloop
  endfacet
  facet normal 0 0 -1
    outer loop
      vertex 193.65 79.9905 0
      vertex 195.05 80.75 0
      vertex 194.525 78.475 0
    endloop
  endfacet
  facet normal 0 0 -1
    outer loop
      vertex 191.9 79.9905 0
      vertex 195.05 80.75 0
      vertex 193.65 79.9905 0
    endloop
  endfacet
  facet normal 0 0 -1
    outer loop
      vertex 191.025 40.375 0
      vertex 99.275 40.375 0
      vertex 191.025 78.475 0
    endloop
  endfacet
  facet normal 0 0 -1
    outer loop
      vertex 99.275 78.475 0
      vertex 191.025 78.475 0
      vertex 99.275 40.375 0
    endloop
  endfacet
  facet normal 0 0 -1
    outer loop
      vertex 191.025 78.475 0
      vertex 99.275 78.475 0
      vertex 191.9 79.9905 0
    endloop
  endfacet
  facet normal 0 0 -1
    outer loop
      vertex 98.4 79.9905 0
      vertex 191.9 79.9905 0
      vertex 99.275 78.475 0
    endloop
  endfacet
  facet normal 0 0 -1
    outer loop
      vertex 191.9 79.9905 0
      vertex 98.4 79.9905 0
      vertex 195.05 80.75 0
    endloop
  endfacet
  facet normal 0 0 -1
    outer loop
      vertex 96.65 79.9905 0
      vertex 195.05 80.75 0
      vertex 98.4 79.9905 0
    endloop
  endfacet
  facet normal 0 0 -1
    outer loop
      vertex 95.775 40.375 0
      vertex 4.025 40.375 0
      vertex 95.775 78.475 0
    endloop
  endfacet
  facet normal 0 0 -1
    outer loop
      vertex 4.025 78.475 0
      vertex 95.775 78.475 0
      vertex 4.025 40.375 0
    endloop
  endfacet
  facet normal 0 0 -1
    outer loop
      vertex 95.775 78.475 0
      vertex 4.025 78.475 0
      vertex 96.65 79.9905 0
    endloop
  endfacet
  facet normal 0 0 -1
    outer loop
      vertex 3.15 79.9905 0
      vertex 96.65 79.9905 0
      vertex 4.025 78.475 0
    endloop
  endfacet
  facet normal 0 0 -1
    outer loop
      vertex 0 80.75 0
      vertex 96.65 79.9905 0
      vertex 3.15 79.9905 0
    endloop
  endfacet
  facet normal 0 0 -1
    outer loop
      vertex 0 80.75 0
      vertex 3.15 79.9905 0
      vertex 1.4 79.9905 0
    endloop
  endfacet
  facet normal 0 0 -1
    outer loop
      vertex 96.65 79.9905 0
      vertex 0 80.75 0
      vertex 195.05 80.75 0
    endloop
  endfacet
  facet normal 0 0 -1
    outer loop
      vertex 0.525 78.475 0
      vertex 0 80.75 0
      vertex 1.4 79.9905 0
    endloop
  endfacet
  facet normal 0 0 -1
    outer loop
      vertex 0.525 40.375 0
      vertex 0 80.75 0
      vertex 0.525 78.475 0
    endloop
  endfacet
  facet normal -0 0 1
    outer loop
      vertex 3.15 38.8595 1.5
      vertex 4.025 2.275 1.5
      vertex 4.025 40.375 1.5
    endloop
  endfacet
  facet normal 0 0 1
    outer loop
      vertex 3.15 38.8595 1.5
      vertex 3.15 3.79054 1.5
      vertex 4.025 2.275 1.5
    endloop
  endfacet
  facet normal -0 0 1
    outer loop
      vertex 1.4 38.8595 1.5
      vertex 3.15 3.79054 1.5
      vertex 3.15 38.8595 1.5
    endloop
  endfacet
  facet normal 0 0 1
    outer loop
      vertex 1.4 38.8595 1.5
      vertex 1.4 3.79054 1.5
      vertex 3.15 3.79054 1.5
    endloop
  endfacet
  facet normal 0 0 1
    outer loop
      vertex 0.525 40.375 1.5
      vertex 1.4 3.79054 1.5
      vertex 1.4 38.8595 1.5
    endloop
  endfacet
  facet normal 0 0 1
    outer loop
      vertex 1.4 3.79054 1.5
      vertex 0.525 40.375 1.5
      vertex 0.525 2.275 1.5
    endloop
  endfacet
  facet normal -0 0 1
    outer loop
      vertex 3.15 76.9595 1.5
      vertex 4.025 40.375 1.5
      vertex 4.025 78.475 1.5
    endloop
  endfacet
  facet normal 0 0 1
    outer loop
      vertex 3.15 76.9595 1.5
      vertex 3.15 41.8905 1.5
      vertex 4.025 40.375 1.5
    endloop
  endfacet
  facet normal -0 0 1
    outer loop
      vertex 1.4 76.9595 1.5
      vertex 3.15 41.8905 1.5
      vertex 3.15 76.9595 1.5
    endloop
  endfacet
  facet normal 0 0 1
    outer loop
      vertex 1.4 76.9595 1.5
      vertex 1.4 41.8905 1.5
      vertex 3.15 41.8905 1.5
    endloop
  endfacet
  facet normal 0 0 1
    outer loop
      vertex 0.525 78.475 1.5
      vertex 1.4 41.8905 1.5
      vertex 1.4 76.9595 1.5
    endloop
  endfacet
  facet normal 0 0 1
    outer loop
      vertex 1.4 41.8905 1.5
      vertex 0.525 78.475 1.5
      vertex 0.525 40.375 1.5
    endloop
  endfacet
  facet normal -0 0 1
    outer loop
      vertex 98.4 38.8595 1.5
      vertex 99.275 2.275 1.5
      vertex 99.275 40.375 1.5
    endloop
  endfacet
  facet normal 0 0 1
    outer loop
      vertex 98.4 38.8595 1.5
      vertex 98.4 3.79054 1.5
      vertex 99.275 2.275 1.5
    endloop
  endfacet
  facet normal -0 0 1
    outer loop
      vertex 96.65 38.8595 1.5
      vertex 98.4 3.79054 1.5
      vertex 98.4 38.8595 1.5
    endloop
  endfacet
  facet normal 0 0 1
    outer loop
      vertex 96.65 38.8595 1.5
      vertex 96.65 3.79054 1.5
      vertex 98.4 3.79054 1.5
    endloop
  endfacet
  facet normal 0 0 1
    outer loop
      vertex 95.775 40.375 1.5
      vertex 96.65 3.79054 1.5
      vertex 96.65 38.8595 1.5
    endloop
  endfacet
  facet normal 0 0 1
    outer loop
      vertex 96.65 3.79054 1.5
      vertex 95.775 40.375 1.5
      vertex 95.775 2.275 1.5
    endloop
  endfacet
  facet normal -0 0 1
    outer loop
      vertex 98.4 76.9595 1.5
      vertex 99.275 40.375 1.5
      vertex 99.275 78.475 1.5
    endloop
  endfacet
  facet normal 0 0 1
    outer loop
      vertex 98.4 76.9595 1.5
      vertex 98.4 41.8905 1.5
      vertex 99.275 40.375 1.5
    endloop
  endfacet
  facet normal -0 0 1
    outer loop
      vertex 96.65 76.9595 1.5
      vertex 98.4 41.8905 1.5
      vertex 98.4 76.9595 1.5
    endloop
  endfacet
  facet normal 0 0 1
    outer loop
      vertex 96.65 76.9595 1.5
      vertex 96.65 41.8905 1.5
      vertex 98.4 41.8905 1.5
    endloop
  endfacet
  facet normal 0 0 1
    outer loop
      vertex 95.775 78.475 1.5
      vertex 96.65 41.8905 1.5
      vertex 96.65 76.9595 1.5
    endloop
  endfacet
  facet normal 0 0 1
    outer loop
      vertex 96.65 41.8905 1.5
      vertex 95.775 78.475 1.5
      vertex 95.775 40.375 1.5
    endloop
  endfacet
  facet normal -0 0 1
    outer loop
      vertex 193.65 38.8595 1.5
      vertex 194.525 2.275 1.5
      vertex 194.525 40.375 1.5
    endloop
  endfacet
  facet normal 0 0 1
    outer loop
      vertex 193.65 38.8595 1.5
      vertex 193.65 3.79054 1.5
      vertex 194.525 2.275 1.5
    endloop
  endfacet
  facet normal -0 0 1
    outer loop
      vertex 191.9 38.8595 1.5
      vertex 193.65 3.79054 1.5
      vertex 193.65 38.8595 1.5
    endloop
  endfacet
  facet normal 0 0 1
    outer loop
      vertex 191.9 38.8595 1.5
      vertex 191.9 3.79054 1.5
      vertex 193.65 3.79054 1.5
    endloop
  endfacet
  facet normal 0 0 1
    outer loop
      vertex 191.025 40.375 1.5
      vertex 191.9 3.79054 1.5
      vertex 191.9 38.8595 1.5
    endloop
  endfacet
  facet normal 0 0 1
    outer loop
      vertex 191.9 3.79054 1.5
      vertex 191.025 40.375 1.5
      vertex 191.025 2.275 1.5
    endloop
  endfacet
  facet normal -0 0 1
    outer loop
      vertex 193.65 76.9595 1.5
      vertex 194.525 40.375 1.5
      vertex 194.525 78.475 1.5
    endloop
  endfacet
  facet normal 0 0 1
    outer loop
      vertex 193.65 76.9595 1.5
      vertex 193.65 41.8905 1.5
      vertex 194.525 40.375 1.5
    endloop
  endfacet
  facet normal -0 0 1
    outer loop
      vertex 191.9 76.9595 1.5
      vertex 193.65 41.8905 1.5
      vertex 193.65 76.9595 1.5
    endloop
  endfacet
  facet normal 0 0 1
    outer loop
      vertex 191.9 76.9595 1.5
      vertex 191.9 41.8905 1.5
      vertex 193.65 41.8905 1.5
    endloop
  endfacet
  facet normal 0 0 1
    outer loop
      vertex 191.025 78.475 1.5
      vertex 191.9 41.8905 1.5
      vertex 191.9 76.9595 1.5
    endloop
  endfacet
  facet normal 0 0 1
    outer loop
      vertex 191.9 41.8905 1.5
      vertex 191.025 78.475 1.5
      vertex 191.025 40.375 1.5
    endloop
  endfacet
  facet normal 0 0 1
    outer loop
      vertex 194.525 40.375 1.5
      vertex 195.05 80.75 1.5
      vertex 194.525 78.475 1.5
    endloop
  endfacet
  facet normal 0 0 1
    outer loop
      vertex 195.05 80.75 1.5
      vertex 193.65 79.9905 1.5
      vertex 194.525 78.475 1.5
    endloop
  endfacet
  facet normal 0 0 1
    outer loop
      vertex 195.05 80.75 1.5
      vertex 191.9 79.9905 1.5
      vertex 193.65 79.9905 1.5
    endloop
  endfacet
  facet normal 0 0 1
    outer loop
      vertex 99.275 40.375 1.5
      vertex 191.025 40.375 1.5
      vertex 191.025 78.475 1.5
    endloop
  endfacet
  facet normal 0 0 1
    outer loop
      vertex 99.275 40.375 1.5
      vertex 191.025 78.475 1.5
      vertex 99.275 78.475 1.5
    endloop
  endfacet
  facet normal 0 0 1
    outer loop
      vertex 191.9 79.9905 1.5
      vertex 99.275 78.475 1.5
      vertex 191.025 78.475 1.5
    endloop
  endfacet
  facet normal 0 0 1
    outer loop
      vertex 98.4 79.9905 1.5
      vertex 191.9 79.9905 1.5
      vertex 195.05 80.75 1.5
    endloop
  endfacet
  facet normal 0 0 1
    outer loop
      vertex 191.9 79.9905 1.5
      vertex 98.4 79.9905 1.5
      vertex 99.275 78.475 1.5
    endloop
  endfacet
  facet normal 0 0 1
    outer loop
      vertex 195.05 80.75 1.5
      vertex 96.65 79.9905 1.5
      vertex 98.4 79.9905 1.5
    endloop
  endfacet
  facet normal 0 0 1
    outer loop
      vertex 4.025 40.375 1.5
      vertex 95.775 40.375 1.5
      vertex 95.775 78.475 1.5
    endloop
  endfacet
  facet normal 0 0 1
    outer loop
      vertex 4.025 40.375 1.5
      vertex 95.775 78.475 1.5
      vertex 4.025 78.475 1.5
    endloop
  endfacet
  facet normal 0 0 1
    outer loop
      vertex 96.65 79.9905 1.5
      vertex 4.025 78.475 1.5
      vertex 95.775 78.475 1.5
    endloop
  endfacet
  facet normal 0 0 1
    outer loop
      vertex 96.65 79.9905 1.5
      vertex 3.15 79.9905 1.5
      vertex 4.025 78.475 1.5
    endloop
  endfacet
  facet normal -0 0 1
    outer loop
      vertex 0 80.75 1.5
      vertex 96.65 79.9905 1.5
      vertex 195.05 80.75 1.5
    endloop
  endfacet
  facet normal 0 0 1
    outer loop
      vertex 96.65 79.9905 1.5
      vertex 0 80.75 1.5
      vertex 3.15 79.9905 1.5
    endloop
  endfacet
  facet normal 0 0 1
    outer loop
      vertex 0 80.75 1.5
      vertex 0.525 40.375 1.5
      vertex 0.525 78.475 1.5
    endloop
  endfacet
  facet normal 0 0 1
    outer loop
      vertex 0 0 1.5
      vertex 0.525 40.375 1.5
      vertex 0 80.75 1.5
    endloop
  endfacet
  facet normal 0 0 1
    outer loop
      vertex 1.4 79.9905 1.5
      vertex 0 80.75 1.5
      vertex 0.525 78.475 1.5
    endloop
  endfacet
  facet normal 0 0 1
    outer loop
      vertex 3.15 79.9905 1.5
      vertex 0 80.75 1.5
      vertex 1.4 79.9905 1.5
    endloop
  endfacet
  facet normal 0 0 1
    outer loop
      vertex 195.05 80.75 1.5
      vertex 194.525 40.375 1.5
      vertex 195.05 0 1.5
    endloop
  endfacet
  facet normal -0 0 1
    outer loop
      vertex 194.525 2.275 1.5
      vertex 195.05 0 1.5
      vertex 194.525 40.375 1.5
    endloop
  endfacet
  facet normal -0 0 1
    outer loop
      vertex 193.65 0.759455 1.5
      vertex 195.05 0 1.5
      vertex 194.525 2.275 1.5
    endloop
  endfacet
  facet normal -0 0 1
    outer loop
      vertex 191.9 0.759455 1.5
      vertex 195.05 0 1.5
      vertex 193.65 0.759455 1.5
    endloop
  endfacet
  facet normal 0 0 1
    outer loop
      vertex 191.025 40.375 1.5
      vertex 99.275 40.375 1.5
      vertex 191.025 2.275 1.5
    endloop
  endfacet
  facet normal 0 0 1
    outer loop
      vertex 99.275 2.275 1.5
      vertex 191.025 2.275 1.5
      vertex 99.275 40.375 1.5
    endloop
  endfacet
  facet normal 0 0 1
    outer loop
      vertex 191.025 2.275 1.5
      vertex 99.275 2.275 1.5
      vertex 191.9 0.759455 1.5
    endloop
  endfacet
  facet normal 0 0 1
    outer loop
      vertex 98.4 0.759455 1.5
      vertex 191.9 0.759455 1.5
      vertex 99.275 2.275 1.5
    endloop
  endfacet
  facet normal 0 0 1
    outer loop
      vertex 191.9 0.759455 1.5
      vertex 98.4 0.759455 1.5
      vertex 195.05 0 1.5
    endloop
  endfacet
  facet normal -0 0 1
    outer loop
      vertex 96.65 0.759455 1.5
      vertex 195.05 0 1.5
      vertex 98.4 0.759455 1.5
    endloop
  endfacet
  facet normal 0 0 1
    outer loop
      vertex 95.775 40.375 1.5
      vertex 4.025 40.375 1.5
      vertex 95.775 2.275 1.5
    endloop
  endfacet
  facet normal 0 0 1
    outer loop
      vertex 4.025 2.275 1.5
      vertex 95.775 2.275 1.5
      vertex 4.025 40.375 1.5
    endloop
  endfacet
  facet normal 0 0 1
    outer loop
      vertex 95.775 2.275 1.5
      vertex 4.025 2.275 1.5
      vertex 96.65 0.759455 1.5
    endloop
  endfacet
  facet normal 0 0 1
    outer loop
      vertex 3.15 0.759455 1.5
      vertex 96.65 0.759455 1.5
      vertex 4.025 2.275 1.5
    endloop
  endfacet
  facet normal 0 0 1
    outer loop
      vertex 0 0 1.5
      vertex 96.65 0.759455 1.5
      vertex 3.15 0.759455 1.5
    endloop
  endfacet
  facet normal 0 0 1
    outer loop
      vertex 0 0 1.5
      vertex 3.15 0.759455 1.5
      vertex 1.4 0.759455 1.5
    endloop
  endfacet
  facet normal 0 0 1
    outer loop
      vertex 96.65 0.759455 1.5
      vertex 0 0 1.5
      vertex 195.05 0 1.5
    endloop
  endfacet
  facet normal 0 0 1
    outer loop
      vertex 0.525 2.275 1.5
      vertex 0 0 1.5
      vertex 1.4 0.759455 1.5
    endloop
  endfacet
  facet normal 0 0 1
    outer loop
      vertex 0.525 40.375 1.5
      vertex 0 0 1.5
      vertex 0.525 2.275 1.5
    endloop
  endfacet
  facet normal 0 1 -0
    outer loop
      vertex 3.15 0.759455 0
      vertex 1.4 0.759455 1.5
      vertex 3.15 0.759455 1.5
    endloop
  endfacet
  facet normal 0 1 0
    outer loop
      vertex 1.4 0.759455 1.5
      vertex 3.15 0.759455 0
      vertex 1.4 0.759455 0
    endloop
  endfacet
  facet normal -0.866025 0.5 -1.85172e-17
    outer loop
      vertex 3.15 0.759455 0
      vertex 4.025 2.275 1.5
      vertex 4.025 2.275 0
    endloop
  endfacet
  facet normal -0.866025 0.5 -1.85172e-17
    outer loop
      vertex 4.025 2.275 1.5
      vertex 3.15 0.759455 0
      vertex 3.15 0.759455 1.5
    endloop
  endfacet
  facet normal 0 -1 0
    outer loop
      vertex 1.4 41.8905 0
      vertex 3.15 41.8905 1.5
      vertex 1.4 41.8905 1.5
    endloop
  endfacet
  facet normal 0 -1 -0
    outer loop
      vertex 3.15 41.8905 1.5
      vertex 1.4 41.8905 0
      vertex 3.15 41.8905 0
    endloop
  endfacet
  facet normal -0.866019 -0.500011 -2.6223e-18
    outer loop
      vertex 4.025 40.375 0
      vertex 3.15 41.8905 1.5
      vertex 3.15 41.8905 0
    endloop
  endfacet
  facet normal -0.866019 -0.500011 -2.6223e-18
    outer loop
      vertex 3.15 41.8905 1.5
      vertex 4.025 40.375 0
      vertex 4.025 40.375 1.5
    endloop
  endfacet
  facet normal 0.866019 -0.500011 2.0492e-17
    outer loop
      vertex 0.525 40.375 1.5
      vertex 1.4 41.8905 0
      vertex 1.4 41.8905 1.5
    endloop
  endfacet
  facet normal 0.866019 -0.500011 2.0492e-17
    outer loop
      vertex 1.4 41.8905 0
      vertex 0.525 40.375 1.5
      vertex 0.525 40.375 0
    endloop
  endfacet
  facet normal 0.866019 0.500011 -2.0492e-17
    outer loop
      vertex 1.4 38.8595 1.5
      vertex 0.525 40.375 0
      vertex 0.525 40.375 1.5
    endloop
  endfacet
  facet normal 0.866019 0.500011 -2.0492e-17
    outer loop
      vertex 0.525 40.375 0
      vertex 1.4 38.8595 1.5
      vertex 1.4 38.8595 0
    endloop
  endfacet
  facet normal 0 1 -0
    outer loop
      vertex 3.15 38.8595 0
      vertex 1.4 38.8595 1.5
      vertex 3.15 38.8595 1.5
    endloop
  endfacet
  facet normal 0 1 0
    outer loop
      vertex 1.4 38.8595 1.5
      vertex 3.15 38.8595 0
      vertex 1.4 38.8595 0
    endloop
  endfacet
  facet normal -0.866019 0.500011 2.6223e-18
    outer loop
      vertex 3.15 38.8595 0
      vertex 4.025 40.375 1.5
      vertex 4.025 40.375 0
    endloop
  endfacet
  facet normal -0.866019 0.500011 2.6223e-18
    outer loop
      vertex 4.025 40.375 1.5
      vertex 3.15 38.8595 0
      vertex 3.15 38.8595 1.5
    endloop
  endfacet
  facet normal 0 1 -0
    outer loop
      vertex 3.15 76.9595 0
      vertex 1.4 76.9595 1.5
      vertex 3.15 76.9595 1.5
    endloop
  endfacet
  facet normal 0 1 0
    outer loop
      vertex 1.4 76.9595 1.5
      vertex 3.15 76.9595 0
      vertex 1.4 76.9595 0
    endloop
  endfacet
  facet normal -0.866019 0.500011 2.6223e-18
    outer loop
      vertex 3.15 76.9595 0
      vertex 4.025 78.475 1.5
      vertex 4.025 78.475 0
    endloop
  endfacet
  facet normal -0.866019 0.500011 2.6223e-18
    outer loop
      vertex 4.025 78.475 1.5
      vertex 3.15 76.9595 0
      vertex 3.15 76.9595 1.5
    endloop
  endfacet
  facet normal 0 -1 0
    outer loop
      vertex 1.4 79.9905 0
      vertex 3.15 79.9905 1.5
      vertex 1.4 79.9905 1.5
    endloop
  endfacet
  facet normal 0 -1 -0
    outer loop
      vertex 3.15 79.9905 1.5
      vertex 1.4 79.9905 0
      vertex 3.15 79.9905 0
    endloop
  endfacet
  facet normal -0.866019 -0.500011 -2.6223e-18
    outer loop
      vertex 4.025 78.475 0
      vertex 3.15 79.9905 1.5
      vertex 3.15 79.9905 0
    endloop
  endfacet
  facet normal -0.866019 -0.500011 -2.6223e-18
    outer loop
      vertex 3.15 79.9905 1.5
      vertex 4.025 78.475 0
      vertex 4.025 78.475 1.5
    endloop
  endfacet
  facet normal 0.866019 -0.500011 2.0492e-17
    outer loop
      vertex 0.525 78.475 1.5
      vertex 1.4 79.9905 0
      vertex 1.4 79.9905 1.5
    endloop
  endfacet
  facet normal 0.866019 -0.500011 2.0492e-17
    outer loop
      vertex 1.4 79.9905 0
      vertex 0.525 78.475 1.5
      vertex 0.525 78.475 0
    endloop
  endfacet
  facet normal 0.866019 0.500011 -2.0492e-17
    outer loop
      vertex 1.4 76.9595 1.5
      vertex 0.525 78.475 0
      vertex 0.525 78.475 1.5
    endloop
  endfacet
  facet normal 0.866019 0.500011 -2.0492e-17
    outer loop
      vertex 0.525 78.475 0
      vertex 1.4 76.9595 1.5
      vertex 1.4 76.9595 0
    endloop
  endfacet
  facet normal 0 -1 0
    outer loop
      vertex 96.65 3.79054 0
      vertex 98.4 3.79054 1.5
      vertex 96.65 3.79054 1.5
    endloop
  endfacet
  facet normal 0 -1 -0
    outer loop
      vertex 98.4 3.79054 1.5
      vertex 96.65 3.79054 0
      vertex 98.4 3.79054 0
    endloop
  endfacet
  facet normal -0.866025 -0.500001 2.11472e-17
    outer loop
      vertex 99.275 2.275 0
      vertex 98.4 3.79054 1.5
      vertex 98.4 3.79054 0
    endloop
  endfacet
  facet normal -0.866025 -0.500001 2.11472e-17
    outer loop
      vertex 98.4 3.79054 1.5
      vertex 99.275 2.275 0
      vertex 99.275 2.275 1.5
    endloop
  endfacet
  facet normal 0.866025 -0.500001 -2.11472e-17
    outer loop
      vertex 95.775 2.275 1.5
      vertex 96.65 3.79054 0
      vertex 96.65 3.79054 1.5
    endloop
  endfacet
  facet normal 0.866025 -0.500001 -2.11472e-17
    outer loop
      vertex 96.65 3.79054 0
      vertex 95.775 2.275 1.5
      vertex 95.775 2.275 0
    endloop
  endfacet
  facet normal 0.866025 0.5 2.11471e-17
    outer loop
      vertex 96.65 0.759455 1.5
      vertex 95.775 2.275 0
      vertex 95.775 2.275 1.5
    endloop
  endfacet
  facet normal 0.866025 0.5 2.11471e-17
    outer loop
      vertex 95.775 2.275 0
      vertex 96.65 0.759455 1.5
      vertex 96.65 0.759455 0
    endloop
  endfacet
  facet normal 0 1 -0
    outer loop
      vertex 98.4 0.759455 0
      vertex 96.65 0.759455 1.5
      vertex 98.4 0.759455 1.5
    endloop
  endfacet
  facet normal 0 1 0
    outer loop
      vertex 96.65 0.759455 1.5
      vertex 98.4 0.759455 0
      vertex 96.65 0.759455 0
    endloop
  endfacet
  facet normal -0.866025 0.5 -2.11471e-17
    outer loop
      vertex 98.4 0.759455 0
      vertex 99.275 2.275 1.5
      vertex 99.275 2.275 0
    endloop
  endfacet
  facet normal -0.866025 0.5 -2.11471e-17
    outer loop
      vertex 99.275 2.275 1.5
      vertex 98.4 0.759455 0
      vertex 98.4 0.759455 1.5
    endloop
  endfacet
  facet normal 0 1 -0
    outer loop
      vertex 98.4 38.8595 0
      vertex 96.65 38.8595 1.5
      vertex 98.4 38.8595 1.5
    endloop
  endfacet
  facet normal 0 1 0
    outer loop
      vertex 96.65 38.8595 1.5
      vertex 98.4 38.8595 0
      vertex 96.65 38.8595 0
    endloop
  endfacet
  facet normal 0 -1 0
    outer loop
      vertex 96.65 41.8905 0
      vertex 98.4 41.8905 1.5
      vertex 96.65 41.8905 1.5
    endloop
  endfacet
  facet normal 0 -1 -0
    outer loop
      vertex 98.4 41.8905 1.5
      vertex 96.65 41.8905 0
      vertex 98.4 41.8905 0
    endloop
  endfacet
  facet normal -0.866019 -0.500011 0
    outer loop
      vertex 99.275 40.375 0
      vertex 98.4 41.8905 1.5
      vertex 98.4 41.8905 0
    endloop
  endfacet
  facet normal -0.866019 -0.500011 0
    outer loop
      vertex 98.4 41.8905 1.5
      vertex 99.275 40.375 0
      vertex 99.275 40.375 1.5
    endloop
  endfacet
  facet normal 0.866019 -0.500011 0
    outer loop
      vertex 95.775 40.375 1.5
      vertex 96.65 41.8905 0
      vertex 96.65 41.8905 1.5
    endloop
  endfacet
  facet normal 0.866019 -0.500011 0
    outer loop
      vertex 96.65 41.8905 0
      vertex 95.775 40.375 1.5
      vertex 95.775 40.375 0
    endloop
  endfacet
  facet normal 0.866019 0.500011 0
    outer loop
      vertex 96.65 38.8595 1.5
      vertex 95.775 40.375 0
      vertex 95.775 40.375 1.5
    endloop
  endfacet
  facet normal 0.866019 0.500011 0
    outer loop
      vertex 95.775 40.375 0
      vertex 96.65 38.8595 1.5
      vertex 96.65 38.8595 0
    endloop
  endfacet
  facet normal -0.866019 0.500011 0
    outer loop
      vertex 98.4 38.8595 0
      vertex 99.275 40.375 1.5
      vertex 99.275 40.375 0
    endloop
  endfacet
  facet normal -0.866019 0.500011 0
    outer loop
      vertex 99.275 40.375 1.5
      vertex 98.4 38.8595 0
      vertex 98.4 38.8595 1.5
    endloop
  endfacet
  facet normal 0 1 -0
    outer loop
      vertex 98.4 76.9595 0
      vertex 96.65 76.9595 1.5
      vertex 98.4 76.9595 1.5
    endloop
  endfacet
  facet normal 0 1 0
    outer loop
      vertex 96.65 76.9595 1.5
      vertex 98.4 76.9595 0
      vertex 96.65 76.9595 0
    endloop
  endfacet
  facet normal -0.866019 0.500011 0
    outer loop
      vertex 98.4 76.9595 0
      vertex 99.275 78.475 1.5
      vertex 99.275 78.475 0
    endloop
  endfacet
  facet normal -0.866019 0.500011 0
    outer loop
      vertex 99.275 78.475 1.5
      vertex 98.4 76.9595 0
      vertex 98.4 76.9595 1.5
    endloop
  endfacet
  facet normal 0 -1 0
    outer loop
      vertex 96.65 79.9905 0
      vertex 98.4 79.9905 1.5
      vertex 96.65 79.9905 1.5
    endloop
  endfacet
  facet normal 0 -1 -0
    outer loop
      vertex 98.4 79.9905 1.5
      vertex 96.65 79.9905 0
      vertex 98.4 79.9905 0
    endloop
  endfacet
  facet normal -0.866019 -0.500011 0
    outer loop
      vertex 99.275 78.475 0
      vertex 98.4 79.9905 1.5
      vertex 98.4 79.9905 0
    endloop
  endfacet
  facet normal -0.866019 -0.500011 0
    outer loop
      vertex 98.4 79.9905 1.5
      vertex 99.275 78.475 0
      vertex 99.275 78.475 1.5
    endloop
  endfacet
  facet normal 0.866019 -0.500011 0
    outer loop
      vertex 95.775 78.475 1.5
      vertex 96.65 79.9905 0
      vertex 96.65 79.9905 1.5
    endloop
  endfacet
  facet normal 0.866019 -0.500011 0
    outer loop
      vertex 96.65 79.9905 0
      vertex 95.775 78.475 1.5
      vertex 95.775 78.475 0
    endloop
  endfacet
  facet normal 0.866019 0.500011 0
    outer loop
      vertex 96.65 76.9595 1.5
      vertex 95.775 78.475 0
      vertex 95.775 78.475 1.5
    endloop
  endfacet
  facet normal 0.866019 0.500011 0
    outer loop
      vertex 95.775 78.475 0
      vertex 96.65 76.9595 1.5
      vertex 96.65 76.9595 0
    endloop
  endfacet
  facet normal 0 -1 0
    outer loop
      vertex 191.9 3.79054 0
      vertex 193.65 3.79054 1.5
      vertex 191.9 3.79054 1.5
    endloop
  endfacet
  facet normal 0 -1 -0
    outer loop
      vertex 193.65 3.79054 1.5
      vertex 191.9 3.79054 0
      vertex 193.65 3.79054 0
    endloop
  endfacet
  facet normal -0.866025 -0.500001 2.11472e-17
    outer loop
      vertex 194.525 2.275 0
      vertex 193.65 3.79054 1.5
      vertex 193.65 3.79054 0
    endloop
  endfacet
  facet normal -0.866025 -0.500001 2.11472e-17
    outer loop
      vertex 193.65 3.79054 1.5
      vertex 194.525 2.275 0
      vertex 194.525 2.275 1.5
    endloop
  endfacet
  facet normal 0.866025 -0.500001 -2.11472e-17
    outer loop
      vertex 191.025 2.275 1.5
      vertex 191.9 3.79054 0
      vertex 191.9 3.79054 1.5
    endloop
  endfacet
  facet normal 0.866025 -0.500001 -2.11472e-17
    outer loop
      vertex 191.9 3.79054 0
      vertex 191.025 2.275 1.5
      vertex 191.025 2.275 0
    endloop
  endfacet
  facet normal 0.866025 0.5 2.11471e-17
    outer loop
      vertex 191.9 0.759455 1.5
      vertex 191.025 2.275 0
      vertex 191.025 2.275 1.5
    endloop
  endfacet
  facet normal 0.866025 0.5 2.11471e-17
    outer loop
      vertex 191.025 2.275 0
      vertex 191.9 0.759455 1.5
      vertex 191.9 0.759455 0
    endloop
  endfacet
  facet normal 0 1 -0
    outer loop
      vertex 193.65 0.759455 0
      vertex 191.9 0.759455 1.5
      vertex 193.65 0.759455 1.5
    endloop
  endfacet
  facet normal 0 1 0
    outer loop
      vertex 191.9 0.759455 1.5
      vertex 193.65 0.759455 0
      vertex 191.9 0.759455 0
    endloop
  endfacet
  facet normal -0.866025 0.5 -2.11471e-17
    outer loop
      vertex 193.65 0.759455 0
      vertex 194.525 2.275 1.5
      vertex 194.525 2.275 0
    endloop
  endfacet
  facet normal -0.866025 0.5 -2.11471e-17
    outer loop
      vertex 194.525 2.275 1.5
      vertex 193.65 0.759455 0
      vertex 193.65 0.759455 1.5
    endloop
  endfacet
  facet normal 0 1 -0
    outer loop
      vertex 193.65 38.8595 0
      vertex 191.9 38.8595 1.5
      vertex 193.65 38.8595 1.5
    endloop
  endfacet
  facet normal 0 1 0
    outer loop
      vertex 191.9 38.8595 1.5
      vertex 193.65 38.8595 0
      vertex 191.9 38.8595 0
    endloop
  endfacet
  facet normal 0 -1 0
    outer loop
      vertex 191.9 41.8905 0
      vertex 193.65 41.8905 1.5
      vertex 191.9 41.8905 1.5
    endloop
  endfacet
  facet normal 0 -1 -0
    outer loop
      vertex 193.65 41.8905 1.5
      vertex 191.9 41.8905 0
      vertex 193.65 41.8905 0
    endloop
  endfacet
  facet normal -0.866019 -0.500011 0
    outer loop
      vertex 194.525 40.375 0
      vertex 193.65 41.8905 1.5
      vertex 193.65 41.8905 0
    endloop
  endfacet
  facet normal -0.866019 -0.500011 0
    outer loop
      vertex 193.65 41.8905 1.5
      vertex 194.525 40.375 0
      vertex 194.525 40.375 1.5
    endloop
  endfacet
  facet normal 0.866019 -0.500011 0
    outer loop
      vertex 191.025 40.375 1.5
      vertex 191.9 41.8905 0
      vertex 191.9 41.8905 1.5
    endloop
  endfacet
  facet normal 0.866019 -0.500011 0
    outer loop
      vertex 191.9 41.8905 0
      vertex 191.025 40.375 1.5
      vertex 191.025 40.375 0
    endloop
  endfacet
  facet normal 0.866019 0.500011 0
    outer loop
      vertex 191.9 38.8595 1.5
      vertex 191.025 40.375 0
      vertex 191.025 40.375 1.5
    endloop
  endfacet
  facet normal 0.866019 0.500011 0
    outer loop
      vertex 191.025 40.375 0
      vertex 191.9 38.8595 1.5
      vertex 191.9 38.8595 0
    endloop
  endfacet
  facet normal -0.866019 0.500011 0
    outer loop
      vertex 193.65 38.8595 0
      vertex 194.525 40.375 1.5
      vertex 194.525 40.375 0
    endloop
  endfacet
  facet normal -0.866019 0.500011 0
    outer loop
      vertex 194.525 40.375 1.5
      vertex 193.65 38.8595 0
      vertex 193.65 38.8595 1.5
    endloop
  endfacet
  facet normal 0 1 -0
    outer loop
      vertex 193.65 76.9595 0
      vertex 191.9 76.9595 1.5
      vertex 193.65 76.9595 1.5
    endloop
  endfacet
  facet normal 0 1 0
    outer loop
      vertex 191.9 76.9595 1.5
      vertex 193.65 76.9595 0
      vertex 191.9 76.9595 0
    endloop
  endfacet
  facet normal -0.866019 0.500011 0
    outer loop
      vertex 193.65 76.9595 0
      vertex 194.525 78.475 1.5
      vertex 194.525 78.475 0
    endloop
  endfacet
  facet normal -0.866019 0.500011 0
    outer loop
      vertex 194.525 78.475 1.5
      vertex 193.65 76.9595 0
      vertex 193.65 76.9595 1.5
    endloop
  endfacet
  facet normal 0 -1 0
    outer loop
      vertex 191.9 79.9905 0
      vertex 193.65 79.9905 1.5
      vertex 191.9 79.9905 1.5
    endloop
  endfacet
  facet normal 0 -1 -0
    outer loop
      vertex 193.65 79.9905 1.5
      vertex 191.9 79.9905 0
      vertex 193.65 79.9905 0
    endloop
  endfacet
  facet normal -0.866019 -0.500011 0
    outer loop
      vertex 194.525 78.475 0
      vertex 193.65 79.9905 1.5
      vertex 193.65 79.9905 0
    endloop
  endfacet
  facet normal -0.866019 -0.500011 0
    outer loop
      vertex 193.65 79.9905 1.5
      vertex 194.525 78.475 0
      vertex 194.525 78.475 1.5
    endloop
  endfacet
  facet normal 0.866019 -0.500011 0
    outer loop
      vertex 191.025 78.475 1.5
      vertex 191.9 79.9905 0
      vertex 191.9 79.9905 1.5
    endloop
  endfacet
  facet normal 0.866019 -0.500011 0
    outer loop
      vertex 191.9 79.9905 0
      vertex 191.025 78.475 1.5
      vertex 191.025 78.475 0
    endloop
  endfacet
  facet normal 0.866019 0.500011 0
    outer loop
      vertex 191.9 76.9595 1.5
      vertex 191.025 78.475 0
      vertex 191.025 78.475 1.5
    endloop
  endfacet
  facet normal 0.866019 0.500011 0
    outer loop
      vertex 191.025 78.475 0
      vertex 191.9 76.9595 1.5
      vertex 191.9 76.9595 0
    endloop
  endfacet
  facet normal 1 -0 0
    outer loop
      vertex 195.05 0 1.5
      vertex 195.05 80.75 0
      vertex 195.05 80.75 1.5
    endloop
  endfacet
  facet normal 1 0 0
    outer loop
      vertex 195.05 80.75 0
      vertex 195.05 0 1.5
      vertex 195.05 0 0
    endloop
  endfacet
  facet normal -1 0 0
    outer loop
      vertex 0 0 0
      vertex 0 80.75 1.5
      vertex 0 80.75 0
    endloop
  endfacet
  facet normal -1 -0 0
    outer loop
      vertex 0 80.75 1.5
      vertex 0 0 0
      vertex 0 0 1.5
    endloop
  endfacet
  facet normal 0 1 -0
    outer loop
      vertex 195.05 80.75 0
      vertex 0 80.75 1.5
      vertex 195.05 80.75 1.5
    endloop
  endfacet
  facet normal 0 1 0
    outer loop
      vertex 0 80.75 1.5
      vertex 195.05 80.75 0
      vertex 0 80.75 0
    endloop
  endfacet
  facet normal 0 -1 0
    outer loop
      vertex 0 0 0
      vertex 195.05 0 1.5
      vertex 0 0 1.5
    endloop
  endfacet
  facet normal 0 -1 -0
    outer loop
      vertex 195.05 0 1.5
      vertex 0 0 0
      vertex 195.05 0 0
    endloop
  endfacet
endsolid OpenSCAD_Model
